<svg xmlns="http://www.w3.org/2000/svg" viewBox="0 0 118.36 102.48"><defs><style>.cls-1{fill:#ededed;}.cls-2{fill:#b2b2b2;}.cls-3{fill:#fff;}.cls-4{fill:#1d1d1b;}.cls-5{fill:#e87506;}.cls-6{fill:#cc4f16;}.cls-7{fill:#ef7a1a;}.cls-8{fill:#1e1e1c;}.cls-9{fill:#b7a179;}.cls-10{fill:#f4d6a0;}.cls-11{fill:#2d2e2d;}.cls-12{fill:#f6ad5f;}.cls-13{fill:#ca9e67;}.cls-14{fill:#555454;}.cls-15{fill:#3d3d3b;}.cls-16{fill:#f8ae60;}.cls-17{fill:#b98248;}.cls-18{fill:#e07d35;}.cls-19{fill:#eeeded;}.cls-20{fill:none;}.cls-21{fill:#222221;}</style></defs><g id="katman_2" data-name="katman 2"><g id="katman_1-2" data-name="katman 1"><path class="cls-1" d="M97,96.55s13.57-6.85,21.34-15c.11,0-3.29,0-10.44-.8a61.57,61.57,0,0,0,1.58-10.64c0,.09-6.29,6.54-14.65,8.53C94.81,78.54,97,96.55,97,96.55Z"/><path class="cls-2" d="M100.81,89.38A19.64,19.64,0,0,1,97,96.55l-.52-4.21Z"/><path class="cls-1" d="M20.6,96.61S7.37,89.12,0,80.63c-.11,0,3.46.07,10.65-.41A45.18,45.18,0,0,1,9.4,69.63a30.88,30.88,0,0,0,14.22,9.23C23.67,78.73,20.6,96.61,20.6,96.61Z"/><path class="cls-2" d="M17.15,89.27a19.54,19.54,0,0,0,3.45,7.34l.77-4.53Z"/><path class="cls-3" d="M100.63,91.93a139.21,139.21,0,0,0-1.25-14.7s-20.25,10.21-39.51,9.6S17.94,76.22,17.94,76.22A138.4,138.4,0,0,0,17,90.91c11,6.71,25.71,11,42.79,11.52S88.6,99.21,100.63,91.93Z"/><path class="cls-4" d="M23.67,84.59a5.35,5.35,0,0,0-2.42,1.49,1.13,1.13,0,0,0-.11.42,3.32,3.32,0,0,1-1.06-.38c-.35-.2-.52-.42-.39-.64.31-.51,1.55-.79,2.07-1.42.52-1.55.59-3,.24-3.39a2.33,2.33,0,0,1-.16-.2,2.19,2.19,0,0,1,1.36.22.85.85,0,0,1,.48.81,12.14,12.14,0,0,1-.45,2.37,13.62,13.62,0,0,0,2.52-1.15,1,1,0,0,0,.33-.37,1.3,1.3,0,0,0,.1-.25l.26.11c.61.32.83.65.69.92C26.77,83.84,24.57,84.32,23.67,84.59Z"/><path class="cls-4" d="M27.18,88.25a.47.47,0,0,1-.32.54,2.13,2.13,0,0,1-.9,0,4.8,4.8,0,0,1-1.61-.48c-1.1-.55-1.53-1.24-1.19-2a2.83,2.83,0,0,1,1.94-1.45,3.87,3.87,0,0,1,2.6.21c.76.35,1,.77.77,1.24s-1.33.74-2.74.47c-.33-.07-1-.16-1.14,0a.63.63,0,0,0-.11.46,1.22,1.22,0,0,0,.73.76A3.36,3.36,0,0,0,27.18,88.25Zm-2.25-1.8a1.69,1.69,0,0,1,1-.11c.71,0,1-.11,1.19-.32s.21-.46-.12-.62-1.13,0-1.84.78Z"/><path class="cls-4" d="M30.42,88.57a10.75,10.75,0,0,0-1.79,1.25c-.24.2-.48.25-1,0q-.29-.14-.72-.39a12.88,12.88,0,0,0,1.11-1,6.33,6.33,0,0,0,1.4-1.75,1,1,0,0,0,.11-.51,3.31,3.31,0,0,1,1.05.21c.23.1.44.3.33.55a6,6,0,0,1-.89,1.17,4.13,4.13,0,0,1,3.06-.74c.42.16.62.49.5.79a5.33,5.33,0,0,1-.86,1.31,3.76,3.76,0,0,0-.67.89.55.55,0,0,0,0,.35,1.56,1.56,0,0,0,.57-.08c.4-.13.61-.2.72-.16s0,0,0,.08c-.2.54-1.55,1-2.23.69-.51-.2-.78-.55-.59-1a3.37,3.37,0,0,1,.53-.75,12.6,12.6,0,0,0,1-1.3.15.15,0,0,0-.08-.21C31.72,88,31.08,88.22,30.42,88.57Z"/><path class="cls-4" d="M35.33,91.65q.83-.32.75-.09a1.28,1.28,0,0,1-.29.35,2.33,2.33,0,0,1-1.91.41c-.52-.18-.74-.52-.62-1a3.28,3.28,0,0,1,.63-1.11c.32-.39.57-.79.74-1a1.68,1.68,0,0,0,.19-.38.56.56,0,0,0,0-.42,3.65,3.65,0,0,1,1,.17.8.8,0,0,1,.43.27.4.4,0,0,1,0,.43,3.29,3.29,0,0,1-.23.33c-.29.37-.62.78-.75,1a5.05,5.05,0,0,0-.46.84.51.51,0,0,0,0,.35A1.41,1.41,0,0,0,35.33,91.65ZM37.42,87a4.4,4.4,0,0,0-1.3-.23s0,.08,0,.12c-.1.29-.4.66-.48.88s0,.3.42.37c.57.09.56.1,1.13-.28a1.87,1.87,0,0,0,.56-.45.3.3,0,0,0,0-.08C37.83,87.21,37.7,87.08,37.42,87Z"/><path class="cls-4" d="M43.24,95c-.18,0-.34-.31-.43-.63s-.7-3-.84-3.7c0-.13,0-.26-.06-.39a24.44,24.44,0,0,0-1.84,3.18.77.77,0,0,0,.06.62,3.59,3.59,0,0,1-1-.08c-.42-.12-.56-.3-.47-.6a14.42,14.42,0,0,1,1.3-2,17.4,17.4,0,0,0,1.48-2.39.64.64,0,0,0-.05-.47,2.2,2.2,0,0,1,1.11-.09c.4.1.57.5.69,1.45a21.5,21.5,0,0,0,.73,3.74,18.28,18.28,0,0,0,1-1.62A8.77,8.77,0,0,0,45.8,90a.9.9,0,0,0-.06-.62,2.94,2.94,0,0,1,.88,0c.46.09.52.35.47.62a2.13,2.13,0,0,1-.08.27c-.07.17-2.55,4.77-2.7,4.86S43.6,95.08,43.24,95Z"/><path class="cls-4" d="M50.42,94.88a.45.45,0,0,1-.15.6,2,2,0,0,1-.83.32,4.56,4.56,0,0,1-1.65,0c-1.2-.18-1.8-.71-1.7-1.51a2.88,2.88,0,0,1,1.4-2A3.88,3.88,0,0,1,50,91.75c.81.12,1.16.44,1.09,1s-1,1.11-2.45,1.28c-.33,0-1,.15-1.06.35a.67.67,0,0,0,0,.47,1.15,1.15,0,0,0,.91.5A3.3,3.3,0,0,0,50.42,94.88Zm-2.65-1a1.67,1.67,0,0,1,.93-.41c.68-.17.89-.4,1-.66a.35.35,0,0,0-.3-.56c-.52-.07-1,.39-1.5,1.3Z"/><path class="cls-4" d="M53.45,93a.7.7,0,0,0,.21.48c.39.44.8.84.75,1.41-.09.93-1.28,1.57-2.53,1.44-.71-.08-1.47-.52-1.39-1.13a.6.6,0,0,1,.48-.45,1.43,1.43,0,0,0,1.12,1.07c.47,0,.81-.13.85-.55s-.36-.66-.7-1a1.15,1.15,0,0,1-.29-.89c.12-1,1.43-1.31,2.55-1.22.35,0,.53.12.54.28s-.11.29-.42.43a.92.92,0,0,0-.55-.27C53.68,92.55,53.48,92.71,53.45,93Z"/><path class="cls-4" d="M57.24,95.63c.47-.36.69-.46.69-.3a1.12,1.12,0,0,1-.19.42,2.36,2.36,0,0,1-1.71.92c-.54,0-.85-.3-.86-.78a3.42,3.42,0,0,1,.3-1.24,12,12,0,0,0,.42-1.2A1.81,1.81,0,0,0,56,93a.61.61,0,0,0-.12-.4,4,4,0,0,1,1-.11.76.76,0,0,1,.48.15.36.36,0,0,1,.1.41,2.54,2.54,0,0,1-.13.39c-.17.43-.38.92-.45,1.13a5.19,5.19,0,0,0-.21.94.6.6,0,0,0,.09.34A1.46,1.46,0,0,0,57.24,95.63ZM58,90.56a5,5,0,0,0-1.31.14.56.56,0,0,1,0,.12c0,.3-.2.75-.22,1s.1.3.51.25c.57-.07.56-.07,1-.58a2.22,2.22,0,0,0,.41-.59.28.28,0,0,0,0-.09C58.41,90.67,58.25,90.57,58,90.56Z"/><path class="cls-4" d="M60.44,95.77a5.06,5.06,0,0,1,.92-.48c.08,0,0,.15-.32.54a3.12,3.12,0,0,1-2,.94c-.55,0-.89-.26-.89-.73a3,3,0,0,1,.12-.65,1.6,1.6,0,0,0,0-.21,3.08,3.08,0,0,1-.56.27,2.38,2.38,0,0,1,.51-.35l.09-.06c.43-1.23.9-2.48,1.38-3.69a.82.82,0,0,1,.33-.34,1,1,0,0,1,.48-.1,1.8,1.8,0,0,1,.81.24.2.2,0,0,1,.08.12,1.07,1.07,0,0,1,0,.28,1.37,1.37,0,0,1,0,.27A3.76,3.76,0,0,1,61,92.93a7,7,0,0,1-1,1.34v0a1.27,1.27,0,0,1-.08.23,7.84,7.84,0,0,0-.27,1.09.48.48,0,0,0,.09.33A1.67,1.67,0,0,0,60.44,95.77Zm-.34-1.94a5.61,5.61,0,0,0,.7-1,3.48,3.48,0,0,0,.43-1c0-.11,0-.21,0-.29a.11.11,0,0,0-.18,0,.64.64,0,0,0-.08.14c-.16.35-.31.71-.44,1.05S60.23,93.44,60.1,93.83Z"/><path class="cls-4" d="M70.83,95.49s0,0,0,0a1.29,1.29,0,0,1-1.12.85,1.81,1.81,0,0,1-1.53-.62,9.57,9.57,0,0,1-1.72-2.1A15.66,15.66,0,0,0,66,96.1a1.06,1.06,0,0,0,.11.33,2.62,2.62,0,0,1-1.13.3c-.39,0-.57-.07-.59-.29a2.2,2.2,0,0,1,.12-.63,20,20,0,0,0,1.06-4.63.71.71,0,0,0-.13-.45,2.87,2.87,0,0,1,1-.33.64.64,0,0,1,.44.07.39.39,0,0,1,.15.34,16.59,16.59,0,0,1-.46,2.47,3.34,3.34,0,0,1,.34-.25c1.83-1.17,2.47-1.91,2.41-2.51a1,1,0,0,0-.07-.28,5.33,5.33,0,0,1,.62-.17c.37,0,.58.1.61.39a1.47,1.47,0,0,1-.5,1.11c-.65.69-2,1.48-2.08,1.86,1,1.3,2.09,2.15,2.9,2A0,0,0,0,1,70.83,95.49Z"/><path class="cls-4" d="M76.76,93.63s0,0,.06.06c.11.56-.81,1.62-1.54,1.76-.57.1-1-.1-1-.66,0-.19,0-.47,0-.64a3.21,3.21,0,0,1-2,1.81l-.12,0a1,1,0,0,1-1.24-1,3.7,3.7,0,0,1,2.7-3.67,1.91,1.91,0,0,1,1,0,1,1,0,0,1,.58-.31,2.27,2.27,0,0,1,.9,0,8.29,8.29,0,0,0-.43,3.11.57.57,0,0,0,.17.3,1.31,1.31,0,0,0,.44-.37C76.48,93.82,76.66,93.65,76.76,93.63Zm-2.34-1.37a.83.83,0,0,0-.86-.31c-.79.14-1.4,1.79-1.23,2.75,0,.26.18.39.39.35s.48-.35.81-.86A7.68,7.68,0,0,0,74.42,92.26Z"/><path class="cls-4" d="M79.06,92.3a9.57,9.57,0,0,0-.72,2.06c-.09.3-.24.48-.76.59a6.13,6.13,0,0,1-.81.11,12.69,12.69,0,0,0,.34-1.42,6.49,6.49,0,0,0,.11-2.24,1.11,1.11,0,0,0-.21-.48,3.51,3.51,0,0,1,1-.44c.24-.06.53,0,.59.25a5.81,5.81,0,0,1,0,1.47,4.18,4.18,0,0,1,2.06-2.4c.43-.12.79,0,.88.35a5.31,5.31,0,0,1,.06,1.56,4.31,4.31,0,0,0,0,1.12.58.58,0,0,0,.19.3,1.8,1.8,0,0,0,.42-.4c.25-.34.39-.52.5-.55a.05.05,0,0,1,.07,0c.15.56-.71,1.68-1.42,1.87-.53.14-1,0-1.08-.46a3.52,3.52,0,0,1,0-.92,10.9,10.9,0,0,0,0-1.63c0-.12-.11-.14-.18-.12C79.74,91,79.39,91.63,79.06,92.3Z"/><path class="cls-4" d="M88.32,90.31s.06,0,.07,0c.19.53-.57,1.73-1.28,2-.55.19-1,0-1.14-.49a3.72,3.72,0,0,1-.15-.62,3.26,3.26,0,0,1-1.7,2.09l-.11,0a1,1,0,0,1-1.38-.75,3.7,3.7,0,0,1,2.16-4,1.89,1.89,0,0,1,1-.11,1,1,0,0,1,.53-.4,2.29,2.29,0,0,1,.9-.13,8.3,8.3,0,0,0,0,3.14.6.6,0,0,0,.21.28,1.54,1.54,0,0,0,.39-.43C88.07,90.53,88.22,90.34,88.32,90.31Zm-2.54-1a.82.82,0,0,0-.91-.17c-.76.25-1.13,2-.82,2.9.08.25.23.36.44.29s.43-.42.68-1A7.33,7.33,0,0,0,85.78,89.31Z"/><path class="cls-4" d="M91,86.65c.14.34-.12.73-.55.91l-.54.21-.21.1c0,.39.08.83.09,1.27A2.7,2.7,0,0,0,90,90a.36.36,0,0,0,.51.2,1.25,1.25,0,0,0,.39-.48c.22-.37.35-.57.44-.61s.06,0,.08,0c.21.52-.5,1.75-1.21,2s-1.28.07-1.49-.52a2.57,2.57,0,0,1-.11-.48,10,10,0,0,1-.1-1.29,8,8,0,0,0-.24-2,.87.87,0,0,0-.25-.37,2.75,2.75,0,0,1,.9-.63c.3-.12.51,0,.59.17,0,0,.09.35.19,1.14l.49-.2A8.61,8.61,0,0,0,91,86.6Z"/><path class="cls-4" d="M96,87.48c.29.61-1.1,1.73-1.92,2.1-1.16.52-1.93.36-2.26-.46a3.55,3.55,0,0,1,2-4.22c.79-.37,1.22-.41,1.37-.11s-.14.66-.59,1c-.31-.35-.54-.41-.91-.24-.77.37-1,1.41-.46,2.71a.76.76,0,0,0,1.08.48,3,3,0,0,0,1.5-1.48A.46.46,0,0,1,96,87.48Zm-1.9,3.74c-.32.14-.63.26-.71.08a.35.35,0,0,1,0-.2,2.73,2.73,0,0,0,.47-.15c.43-.19.78-.45.72-.59s-.28-.12-.63,0a.36.36,0,0,1,0-.36.77.77,0,0,1,.33-.31l.11,0a.76.76,0,0,0,0,.21c.53-.16.93-.21,1,0S95.1,90.78,94.09,91.22Z"/><path class="cls-4" d="M98.53,86.13c.24-.56.39-.76.47-.62A1.19,1.19,0,0,1,99,86,2.4,2.4,0,0,1,98,87.66c-.5.26-.91.19-1.16-.22a3.28,3.28,0,0,1-.37-1.23c0-.49-.18-1.08-.24-1.37a2,2,0,0,0-.14-.4.57.57,0,0,0-.31-.28,3.81,3.81,0,0,1,.83-.62.85.85,0,0,1,.5-.13.36.36,0,0,1,.3.3c0,.13.06.26.08.4.07.47.14,1.12.19,1.34a4.34,4.34,0,0,0,.28.92.6.6,0,0,0,.26.25A1.73,1.73,0,0,0,98.53,86.13Z"/><polygon class="cls-5" points="62.16 42.65 60.55 24.06 58.95 5.47 62.16 5.47 65.36 5.47 63.76 24.06 62.16 42.65"/><polygon class="cls-5" points="62.16 42.65 74.17 28.37 86.18 14.09 88.45 16.36 90.71 18.63 76.43 30.64 62.16 42.65"/><polygon class="cls-5" points="62.16 42.65 80.75 41.05 99.34 39.45 99.34 42.65 99.34 45.85 80.75 44.25 62.16 42.65"/><polygon class="cls-5" points="62.16 42.65 76.43 54.66 90.71 66.67 88.45 68.94 86.18 71.21 74.17 56.93 62.16 42.65"/><polygon class="cls-5" points="62.16 42.65 63.76 61.24 65.36 79.83 62.16 79.83 58.95 79.83 60.55 61.24 62.16 42.65"/><polygon class="cls-5" points="62.16 42.65 50.14 56.93 38.13 71.21 35.87 68.94 33.6 66.67 47.88 54.66 62.16 42.65"/><polygon class="cls-5" points="62.16 42.65 43.57 44.25 24.98 45.85 24.98 42.65 24.98 39.45 43.57 41.05 62.16 42.65"/><polygon class="cls-5" points="62.16 42.65 47.88 30.64 33.6 18.63 35.87 16.36 38.13 14.09 50.14 28.37 62.16 42.65"/><polygon class="cls-5" points="62.16 42.65 53.54 26.1 44.93 9.55 47.89 8.32 50.85 7.09 56.5 24.87 62.16 42.65"/><polygon class="cls-5" points="62.16 42.65 67.77 24.86 73.38 7.06 76.34 8.28 79.31 9.51 70.73 26.08 62.16 42.65"/><polygon class="cls-5" points="62.16 42.65 78.71 34.03 95.26 25.42 96.49 28.38 97.72 31.34 79.94 36.99 62.16 42.65"/><polygon class="cls-5" points="62.16 42.65 79.95 48.26 97.75 53.87 96.52 56.84 95.3 59.8 78.73 51.22 62.16 42.65"/><polygon class="cls-5" points="62.16 42.65 70.77 59.2 79.39 75.75 76.43 76.98 73.47 78.21 67.81 60.43 62.16 42.65"/><polygon class="cls-5" points="62.16 42.65 56.54 60.45 50.93 78.24 47.97 77.02 45.01 75.79 53.58 59.22 62.16 42.65"/><polygon class="cls-5" points="62.16 42.65 45.6 51.26 29.05 59.88 27.82 56.92 26.59 53.96 44.38 48.3 62.16 42.65"/><polygon class="cls-5" points="62.16 42.65 44.36 37.04 26.57 31.43 27.79 28.46 29.01 25.5 45.58 34.08 62.16 42.65"/><path class="cls-6" d="M44,55.48l-4.83,9.75-7-.6c-.4-.54-.79-1.1-1.16-1.67-.56-.86-1.1-1.75-1.59-2.67a36.59,36.59,0,0,1-3.22-8.16c.54.54.81.57,1,.51.94-.39-1-5.28.88-6.78a1.93,1.93,0,0,1,.75-.35c-.07.16-.91,2.26.14,3.45.07.07.6.66,1.14.55s1-1.25,1-2.06a3.7,3.7,0,0,0-.46-1.56,10.3,10.3,0,0,1-1-3.85,5.9,5.9,0,0,1,2.54-4.82,5.27,5.27,0,0,0-.31,3.08,7.38,7.38,0,0,0,1,2.24,23.22,23.22,0,0,1,1.44,2.23,4.77,4.77,0,0,1,.56,1.44,5.33,5.33,0,0,1,0,1.95c-.18,1.17-.37,1.13-.47,2a4.7,4.7,0,0,0,.26,2.38,4.2,4.2,0,0,0,1,1.42,8.22,8.22,0,0,1,1.94,3.94,4.11,4.11,0,0,0,.24-3.11c-.34-.9-.93-1.13-1.49-2.41a4.65,4.65,0,0,1-.54-2.06c0-1.83,1.63-2.42,1.73-4.38a3.94,3.94,0,0,0-.16-1.32,2.51,2.51,0,0,1,.73.59,3,3,0,0,1,.66,1.69,10.93,10.93,0,0,1,0,2.62C38.63,50.63,39.51,52.45,44,55.48Z"/><path class="cls-7" d="M34.9,61.38l-3.7,1.68L31,63c-.56-.86-1.1-1.75-1.59-2.67a3.64,3.64,0,0,0,1-1.5,4.83,4.83,0,0,0,.05-2.41,7.72,7.72,0,0,1-.42-2.32A3.32,3.32,0,0,1,30.32,53c.33-.77.76-.93,1.2-1.71a4.26,4.26,0,0,0,.45-1.2,6.84,6.84,0,0,1,.07,1.6,12.21,12.21,0,0,1-.47,2c-.13.76.2,1.91,2.27,3.63C34.2,58.69,34.55,60,34.9,61.38Z"/><path class="cls-6" d="M98.17,51.91h0A36.86,36.86,0,0,1,91.88,65l-.14-4.55L88.1,51.91c-.43-5.07.17-7.2.9-8.15a6.18,6.18,0,0,0,1.37-4.24,6,6,0,0,0-.44-2,4.84,4.84,0,0,1,1.52.95A5.05,5.05,0,0,1,92.85,41c.75,3.06-1.68,4.78-.64,7,.38.79,1.07,1.34,1.35,1.22.51-.21-.49-2.63.72-3.89a2.16,2.16,0,0,1,.55-.41A5,5,0,0,0,96,49.22a2.5,2.5,0,0,1,.37-1.82c.3-.38.59-.43.9-.83a2.41,2.41,0,0,0,.41-1.65,2.55,2.55,0,0,1,.22,1.26c-.07.66-.4.89-.43,1.49a2.86,2.86,0,0,0,.45,1.39A4.87,4.87,0,0,1,98.17,51.91Z"/><path class="cls-8" d="M62.16,80.44A37.69,37.69,0,0,1,31.68,65c-.41-.55-.81-1.12-1.18-1.69-.58-.89-1.12-1.8-1.62-2.72a37,37,0,0,1-3.27-8.29A37.79,37.79,0,1,1,98.79,52h0l0,.08a37.39,37.39,0,0,1-6.4,13.29,38.13,38.13,0,0,1-13.06,11A37.32,37.32,0,0,1,62.16,80.44Zm0-74.36A36.56,36.56,0,0,0,30,60c.48.89,1,1.77,1.56,2.63.37.55.75,1.1,1.14,1.64a36.73,36.73,0,0,0,29.5,15,36.61,36.61,0,0,0,35.4-27.4l0-.07A36.61,36.61,0,0,0,62.16,6.08Z"/><path class="cls-8" d="M91.53,52.86a4.87,4.87,0,0,0-1.46-2.1h0a3.23,3.23,0,0,0-.63-.36,4.16,4.16,0,0,0-2.89.05,9.67,9.67,0,0,0-4.25,2.86,36.21,36.21,0,0,0-5.34,7,44.06,44.06,0,0,0-2.66,5.26,18.11,18.11,0,0,1,3.49-2.36,17.73,17.73,0,0,1,3.06-1.27c-.85.61-1.72,1.25-2.61,2Q76.48,65.27,75,66.62a6.29,6.29,0,0,1,4.51,0,5.14,5.14,0,0,1,1.23.74h-.53a2.45,2.45,0,0,1,.18,1.07,2.48,2.48,0,0,1-.24.9,2.21,2.21,0,0,1,1.48,2.5,2.16,2.16,0,0,1-1.67,1.59,2.31,2.31,0,0,1-.57,1,2,2,0,0,1-.68.46,3,3,0,0,1,1.25,2.37,6.49,6.49,0,0,0-3.47-2.23,6.28,6.28,0,0,0-2-.14A4.23,4.23,0,0,1,76,76.4a4.51,4.51,0,0,1,.52,1.37,12.68,12.68,0,0,0-2.53-2,14.62,14.62,0,0,0-4.06-1.63,20.67,20.67,0,0,0-3.39-.62,13.1,13.1,0,0,0-1.71,2.87c-.06.14-.11.27-.17.4v0a14.56,14.56,0,0,0-.73,7.87C71.16,86.91,77,86.89,79,86.09a15,15,0,0,0,3.1-1.71,13.33,13.33,0,0,0,1.69-1.53,22.44,22.44,0,0,0,3.74-6,58.92,58.92,0,0,0,3.67-12.61c.29-1.57.4-2.76.63-5.15C92.2,55.59,92.14,54.26,91.53,52.86Zm-4.68-5.47a35.23,35.23,0,0,0-4.77-2.84C81,44,79.46,43.19,77.66,42.33c-.15.57-.32,1.17-.49,1.8h0c-.58,2.14-1.23,4.61-1.93,7.35a39.89,39.89,0,0,0-1.57,8.77,31.57,31.57,0,0,0,0,3.63,12.21,12.21,0,0,0,1.07-2.23c.3-.82.32-1.19.71-2.4.08-.25.36-1.13.71-2A19.85,19.85,0,0,1,78,53.83a16,16,0,0,1,3-3.63,13.53,13.53,0,0,1,1.45-1.1,32.71,32.71,0,0,0-3.32,4.74A34,34,0,0,0,77,58.21a30,30,0,0,1,7.11-7.56,8.11,8.11,0,0,1,3.48-1.37,7.09,7.09,0,0,1,1.49,0A24.86,24.86,0,0,0,86.85,47.39ZM80.64,71.31c-.07-.5-.63-.77-1.12-1a5,5,0,0,0-1.79-.39,10,10,0,0,0-1.83,0,16.45,16.45,0,0,0-4.2,1.15,7.47,7.47,0,0,0-1.55.86,7.06,7.06,0,0,0-1,.94l1.35.37a9.13,9.13,0,0,1,5.46-1.69,8.89,8.89,0,0,1,3.83,1A1.4,1.4,0,0,0,80.64,71.31Zm-1.37-3.42c-.47-1-3.15-.51-3.3-.49a8.27,8.27,0,0,0-3.29,1.54,12.22,12.22,0,0,0-2.13,1.87A15.53,15.53,0,0,1,77.49,69c.56,0,1.09,0,1.6.06A1.24,1.24,0,0,0,79.27,67.89ZM78.64,73a3.29,3.29,0,0,0-1.23-.47,8.1,8.1,0,0,0-1.77-.17,8.24,8.24,0,0,0-2.35.31,8.55,8.55,0,0,0-1.81.77l1.55.68a8.5,8.5,0,0,1,4.57.16,1.92,1.92,0,0,0,1-.45A2,2,0,0,0,79,73.3,3.67,3.67,0,0,0,78.64,73Zm-.13-50.29a2.22,2.22,0,0,0-.8-1.8,1.69,1.69,0,0,0-1.28-.1A2.77,2.77,0,0,0,75,22.05a12.46,12.46,0,0,0-1.57,3c0,.58-.09,1.15-.13,1.73-.08,1.24-.16,2.48-.23,3.7a2,2,0,0,0,1.48,0,3,3,0,0,0,1.23-1.5c.21-.42.15-.45.36-.82a5.82,5.82,0,0,1,1-1.25,5.48,5.48,0,0,0,1.08-2.23A4.73,4.73,0,0,0,78.51,22.72ZM76.78,9.88h0a17,17,0,0,0-6.44-6,18.44,18.44,0,0,0-8.17-2.76,17.44,17.44,0,0,0-6.95,1,22.09,22.09,0,0,0-9.47,7,2.8,2.8,0,0,0-.63,1.51,2.46,2.46,0,0,0,.21,1.17A17.12,17.12,0,0,1,49,10.32a19.07,19.07,0,0,1,9.27-.05,79.74,79.74,0,0,1,7.62,2.54c1.07.38,2,.76,3.95,1.52A21.23,21.23,0,0,1,73,15.73a11.84,11.84,0,0,1,3,2.59,7.83,7.83,0,0,0,1.78-4.74A7,7,0,0,0,76.78,9.88ZM75,41.19c-.78,2.3-1.55,4.7-2.29,7.19q-1.2,4.07-2.14,7.88h2.67q.83-4,1.9-8.25c.53-2.06,1.07-4,1.64-6ZM74,40a4,4,0,0,0-.71-1.69,9.28,9.28,0,0,1-1.06,2.15c-.12.18-.24.34-.37.51a11.34,11.34,0,0,1-1.81,1.77,21.5,21.5,0,0,1-5.42,3.49A5.24,5.24,0,0,0,62,47.86a3.88,3.88,0,0,0-.63,1.84A18.24,18.24,0,0,0,67.65,48a15.79,15.79,0,0,0,5.06-3.91l.14-.18A6,6,0,0,0,74,41.36,3.88,3.88,0,0,0,74,40ZM72.73,61.6c0-.16,0-.33,0-.5h0c0-1.35.11-2.62.22-3.81l-3.56.15c-1.36.05-3.32.12-4.87.14a70.14,70.14,0,0,1-11.05-.48c-1.08-.14-1.58-.25-4.15-.6-1.93-.27-3.52-.47-4.58-.6-.48,1.45-.83,2.69-1.08,3.61a47.06,47.06,0,0,0-1.23,5.37c-.24,1.45-.36,2.69-.42,3.63a11.52,11.52,0,0,1,3.51-.07l.09,0h0a6,6,0,0,1,.66.15l.09,0,.59.16h0l.06,0,.11,0,.63.18.15,0,.4.12.09,0,.09,0,1,.32.11,0,.1,0,.12,0,.33.11.12,0,.07,0,.77.26.1,0,.32.11.35.11.09,0,.09,0,1.07.34.13,0,.19.06h0l.31.09L54,71l.44.13.08,0,.75.21.06,0h.07c.88.24,1.89.48,3,.71a2,2,0,0,1,.69-.38l.07,0h.2l.21,0h.33a6.6,6.6,0,0,1,.82,0l.33,0h.16l.15,0c.37,0,.71.06,1,.1h.15l.14,0,.28,0,.36,0,1.8.26.31,0h.19l.17,0,.11,0,.2,0h.11l.19,0h.26l.43,0,1,.08A21.94,21.94,0,0,1,73,67.33,53.7,53.7,0,0,1,72.73,61.6ZM52.9,29.46l-.11-.14,0-.05h0l0-.06,0,0s0,0,0,0a.75.75,0,0,1-.08-.18h0s0,0,0-.06v0a.06.06,0,0,1,0,0v0h0s0,0,0,0V28.7a1,1,0,0,1,0-.35V28.3s0,0,0,0h0l0-.05s0,0,0,0l0,0,.12-.21.07-.11,0-.05a.86.86,0,0,1,.07-.1,3.78,3.78,0,0,1,.5-.53,2.57,2.57,0,0,0,.64-1.52l-.27.24a5.59,5.59,0,0,1-3.77,1.1H49.8a4.75,4.75,0,0,1-2.18-.42l-.12,4.09a15.15,15.15,0,0,0,.38,1.87c.08.33.18.64.27.93,0-.17,0-.36,0-.54,0-.38,0-.76.06-1.12.09.33.2.67.32,1,.25.74.52,1.44.8,2.09a3.34,3.34,0,0,1,0-.43h0a5,5,0,0,1,0-1.26l0-.13a.5.5,0,0,1,0-.12l0-.13s0-.05,0-.07h0s0,0,0-.05l0-.13h0v0l0-.1s0-.07,0-.11h0l0-.09s0,0,0,0l0,0h0l0-.06,0-.09h0a2.86,2.86,0,0,1,.34-.54,3.25,3.25,0,0,1,.92-.76l0,0h0l.07,0,.08,0,.08-.05.16-.07a.2.2,0,0,1,.08,0l.08,0,.07,0,.08,0,.1,0,.1,0,.17-.05h0l.08,0,.09,0,.06,0h0l.07,0,.12,0,.12,0h.31l.13,0h.26A1.89,1.89,0,0,1,52.9,29.46Zm2-6.72.06-.26Zm17.2-4.84c0-.09,0-.18,0-.28a2.22,2.22,0,0,0-.34-1.07,2.35,2.35,0,0,0-.89-.83,15.14,15.14,0,0,1-1.62,0,15.91,15.91,0,0,1-3.51-.52c-3.23-.83-3.53-1.43-6.25-2.1a23.4,23.4,0,0,0-5.36-.64,11.57,11.57,0,0,0-2.85.23,4.54,4.54,0,0,0-2.64,1.19,3.36,3.36,0,0,0-.6.95l-.07,2.42h0v.16l0,1.61.79-.05c.84-.05,1.4-.08,1.91-.08.3,0,.58,0,.86,0a10.2,10.2,0,0,1,2.08.34,9.1,9.1,0,0,1,1.79.7H58.7l.08,0,.09,0,.07,0,.08,0,.09,0,.47-.2.12,0,.12-.05.13,0,0,0,0,0,.22-.07.23-.06.15,0,.16,0,.17,0,.12,0,.15,0,.1,0,.16,0h0l1-.11h0c.51,0,1,0,1.55,0h0l1.16.06.39,0h0l.75.08h0l.9.25h0a16.76,16.76,0,0,0,2,.4,22.52,22.52,0,0,0,2.88.2C72.22,19.25,72.15,18.56,72.06,17.9Zm.29,3.18.4-.1h-.41L69.47,21a1,1,0,0,0-.57.17,1.25,1.25,0,0,0-.44.79,6.4,6.4,0,0,1-.34,2.74,4,4,0,0,1-.67,1h0a3.64,3.64,0,0,1-.51.45h0l0,0a4.41,4.41,0,0,1-2.72.75h-.27a5.6,5.6,0,0,1-3.78-1.1,5.85,5.85,0,0,1-1.79-3.54,1.4,1.4,0,0,0-2.7,0c-.07.29-.14.63-.24,1h0a17.34,17.34,0,0,1-.5,1.84A7.42,7.42,0,0,1,54,27.42c-.38.45-.8.71-.77,1.16a1,1,0,0,0,.28.57c.3.32.55.24,1,.54l.06,0h0a1.63,1.63,0,0,1,.18.14l0,0,0,0,0,0h0l0,.07h0l0,.05,0,0h0l0,0h0l0,0,.16.13h0l.18.11a1.89,1.89,0,0,0,1,.26,1.22,1.22,0,0,0,.8-.36h0l.09-.08.1-.08.12-.08.11-.08.07,0,.06,0,.08,0h0l.15-.06a.32.32,0,0,1,.09,0l.06,0h0l.1,0c.49-.11.54,0,1-.12s1.11-.58,1.11-1.14a1,1,0,0,0-.27-.6.63.63,0,0,0-.1-.12l0,0h0l-.05,0,0,0,0,0-.11-.08,0,0h0l0,0,0,0-.06,0-.18-.07-.05,0,0,0h-.09l-.11,0a1.46,1.46,0,0,1,1-.14,1.44,1.44,0,0,1,1,1.15,1.94,1.94,0,0,1,0,.24,1.28,1.28,0,0,1,0,.19v.07a1.17,1.17,0,0,1-.06.2l0,.09,0,.08,0,0s0,.05,0,.08l0,0,0,0a.21.21,0,0,1,0,.06h0l-.06.07-.06.08-.08.07h0s0,0,0,0h0l-.08.06-.06.05h0l0,0-.07.05-.09.05a8.46,8.46,0,0,1,1.38.09,6.15,6.15,0,0,1,2.45.78l.31.19.06,0,0,0,.14.1.08.06s0,0,0,.05l0,0,.06.05.06.05.06.06.07.06.06.07,0,0a.08.08,0,0,1,0,0l.07.07.06.08h0l.06.08.07.08.06.09a.44.44,0,0,1,.08.11l.08.12.06.09h0l.07.11s0,0,0,.08l0,.07a.2.2,0,0,0,0,.08l0,.08s0,0,0,0v0a1,1,0,0,1,.07.15.56.56,0,0,0,0,.12.76.76,0,0,0,0,.11h0l.06.21s0,0,0,.08a1.16,1.16,0,0,1,0,.18s0,.05,0,.08l0,.16s0,0,0,.07,0,0,0,.07,0,.06,0,.09,0,.05,0,.07,0,.1,0,.15v.07a.28.28,0,0,1,0,.09v.1c.08.56.13,1,.16,1.43a10.92,10.92,0,0,0,.91-1.23,8.6,8.6,0,0,0,.46-.81,3.23,3.23,0,0,1,.15.58,4.13,4.13,0,0,1,0,.57c.21-.3.43-.63.64-1a11.33,11.33,0,0,0,.78-1.64,1.76,1.76,0,0,1,.16.43,2.14,2.14,0,0,1,.06.67c.21-.36.43-.78.64-1.24a11.92,11.92,0,0,0,.6-1.68l.18.79,1.31-5.68a41,41,0,0,0,.07-4.21ZM73.1,21c.06,1.08.08,2.1.07,3.06a10.65,10.65,0,0,1,1.13-2.32c.19-.3.37-.54.52-.75Zm2.25-1.22c0-.52-.42-.88-1.18-1.61A9.78,9.78,0,0,0,72.66,17c.13.86.25,1.77.34,2.72L73,20h0c.62,0,1.4,0,2.31,0A.82.82,0,0,0,75.35,19.75ZM72.14,35.44a20.09,20.09,0,0,1-2.62,4,22.39,22.39,0,0,1-4,3.66,21.35,21.35,0,0,1-4.14,2.56,19.61,19.61,0,0,1-4,1.37,6.56,6.56,0,0,1,.73,1.39,6.87,6.87,0,0,1,.39,1.38l1.78-.09a4.72,4.72,0,0,1,.33-1.4,4.89,4.89,0,0,1,.9-1.43,5.85,5.85,0,0,1,1.65-1.11,20.34,20.34,0,0,1,2-.87,15.12,15.12,0,0,0,2.64-1.7,17.94,17.94,0,0,0,3.14-2.68,13.32,13.32,0,0,0,1.25-1.62C72.15,37.78,72.15,36.61,72.14,35.44ZM68.78,48.29a18.66,18.66,0,0,1-4.28,1.63c-.73.2-1.32.32-1.53.36a39,39,0,0,1-4.19.47c-2.28.19-2.62.22-3,.58s-.59,1.07-.85,2.33a16.31,16.31,0,0,0-.34,2.56c2.24.19,4.68.31,7.28.32s5.3-.12,7.65-.32c.32-1.27.65-2.56,1-3.87.69-2.5,1.43-4.89,2.19-7.16A15.44,15.44,0,0,1,68.78,48.29Zm-3.63-35a40.21,40.21,0,0,0-7.59-2.35,19.2,19.2,0,0,0-7.47-.09,20.42,20.42,0,0,0-2,.61,15.49,15.49,0,0,0-3,1.46,1.19,1.19,0,0,0-.41.41,1.38,1.38,0,0,0,0,1.1,12.51,12.51,0,0,1,2.68-1.75A14.15,14.15,0,0,1,54,11.43a23.2,23.2,0,0,1,6.65,1.1c1.83.56,2.88,1.11,5.45,1.73,1.2.29,2.2.47,2.87.57C68.07,14.42,66.75,13.87,65.15,13.26ZM64,35.15l-.64-1.74a11.33,11.33,0,0,1-8.55,1.26,9.76,9.76,0,0,1-2.67-1.26l-.54,1.41a7.41,7.41,0,0,0-.61,1.28,6.37,6.37,0,0,0-.22.84,7.13,7.13,0,0,0-.09.83c0,.49-.06.73-.06.9a6.83,6.83,0,0,0,.21,1.88,6,6,0,0,0,.32.91,3.24,3.24,0,0,1,0-.53,3.07,3.07,0,0,1,.17-.76,2.92,2.92,0,0,1,.35-.64A8.78,8.78,0,0,0,51.55,41a7.77,7.77,0,0,0,.08.88,5.74,5.74,0,0,0,.95,1.54,6.23,6.23,0,0,0,1.08,1,3.87,3.87,0,0,1-.32-1.71,7.6,7.6,0,0,0,1.2,2,7.35,7.35,0,0,0,1.18,1.15c0-.6.05-1.21.07-1.81a9.51,9.51,0,0,0,.49,1.32,10,10,0,0,0,.59,1.14,5.69,5.69,0,0,0,.61-.81,5.93,5.93,0,0,0,.74-1.82,6,6,0,0,1,.1.93,6.12,6.12,0,0,1-.1,1.22,5.8,5.8,0,0,0,.89-.66,6.09,6.09,0,0,0,1.45-2.05,3.13,3.13,0,0,1-.06,1,3.22,3.22,0,0,1-.27.72A6.57,6.57,0,0,0,61.42,44a6.5,6.5,0,0,0,1.71-3.21,6,6,0,0,1,0,1,6.12,6.12,0,0,1-.3,1.45,7.91,7.91,0,0,0,1.12-2A8.89,8.89,0,0,0,64,35.15ZM63.83,76a12.88,12.88,0,0,1,1.51-2.7l-1.48-.21c-1.61-.21-2.11-.26-2.41-.28a4.8,4.8,0,0,0-2.28.1c-.2.09-.63.35-1.28,1.6a14.32,14.32,0,0,0-1.26,4.09,13.09,13.09,0,0,0-.28,2.29c0,.16,0,.33,0,.51A3.91,3.91,0,0,0,57.07,84c.33.36.73.54,2.34.9.87.2,2,.43,3.42.63-.09-.86-.12-1.66-.13-2.37s0-1.35.07-1.88A15.57,15.57,0,0,1,63.83,76Zm-5-42.72c-.83,0-1.64,0-2.41-.1-.37,0-.75.07-1.15.08a19.61,19.61,0,0,1-2.46-.05,10.09,10.09,0,0,0,9.54,0C61.24,33.28,60.06,33.31,58.83,33.29ZM56.61,47.53a4.81,4.81,0,0,0-.61-.74,8.09,8.09,0,0,1-.94-.36,9.17,9.17,0,0,1-1.72-1,3.3,3.3,0,0,0,.34,1.37,3.79,3.79,0,0,0,1.2,1.33,10.18,10.18,0,0,0,2.5,1.4A4.9,4.9,0,0,0,56.61,47.53ZM53.43,72c-1.86-.61-3.46-1.28-6.35-2.14A11.67,11.67,0,0,0,45,69.38a10.32,10.32,0,0,0-1.54-.08h0A4.89,4.89,0,0,0,41,70a4.73,4.73,0,0,0-1.22,1.14,69,69,0,0,0,9.57,7.66,67.54,67.54,0,0,0,6,3.56c0-1.06.08-2,.15-2.67,0-.12,0-.24,0-.35a14.05,14.05,0,0,1,.89-4.06,11,11,0,0,1,1.2-2.18A38.77,38.77,0,0,1,53.43,72ZM47.32,45.21c-1.48.48-2,.53-3,.89a13.87,13.87,0,0,0-1.77.83h0a9.52,9.52,0,0,0-1.2.76A14.2,14.2,0,0,0,38,51.75c-1.05,1.56-1,1.77-2.64,4.38-.42.68-.7,1.12-2.38,3.72-3.48,5.41-3.31,5.1-3.49,5.42a29.42,29.42,0,0,0-2.82,6h0a12.41,12.41,0,0,0-.44,1.85,5.9,5.9,0,0,0,.19,3,5.78,5.78,0,0,0,.83,1.51,7.91,7.91,0,0,0,3.62,2.44,26.84,26.84,0,0,0,2.75.9c.85.25,1.57.44,2.06.57a12.86,12.86,0,0,1,.53-3h0a13.1,13.1,0,0,1,.77-2,12.63,12.63,0,0,1,2.9-3.82A8.8,8.8,0,0,0,38.7,72,10.47,10.47,0,0,0,31.12,71a7.41,7.41,0,0,1,2.52-1.18,7.31,7.31,0,0,1,3.89.14,8.44,8.44,0,0,1,1.55.64c0-.13.09-.25.13-.38a7.57,7.57,0,0,0-1.52-1.33l-.15-.1a8.84,8.84,0,0,0-6.9-.7,7.27,7.27,0,0,1,5.85-1.22,6.69,6.69,0,0,1,1.49.56,7.2,7.2,0,0,1,2.34,2l.6-.45a23.44,23.44,0,0,0-1.8-3c-.19-.27-.38-.52-.57-.77a24.87,24.87,0,0,0-1.85-2.14,11.74,11.74,0,0,1,2.09,1.39c.13.11.27.23.4.36a11.08,11.08,0,0,1,1.59,1.8l-1.26-4.19-1.38-4.57a24.87,24.87,0,0,1,1.35,2.35c.19.36.36.71.52,1.06.26.58.5,1.13.7,1.66-.11-.83-.2-1.71-.25-2.64h0a32.57,32.57,0,0,1,.54-8c.18-.9.39-1.76.62-2.58a58.83,58.83,0,0,0-.26,6.71c0,1.78.14,3.61.34,5.47,0,.36.08.72.13,1.07.08-.32.34-1.37.73-2.77h0a59,59,0,0,1,3.22-9c.28-.56,1.09-2.14,2.24-4.14.19-.34.39-.68.6-1,.42-.71.77-1.3,1-1.68C49.12,44.57,48.32,44.89,47.32,45.21Zm8.57,4.46a6.18,6.18,0,0,1-2.43-1.89,5.35,5.35,0,0,1-.94-2.27c-.45.94-.84,1.8-1.17,2.56h0c-.29.65-.53,1.24-.74,1.74-.51,1.26-.93,2.41-1.25,3.27s-.62,1.71-.82,2.27c.91.18,1.88.35,2.9.48.75.1,1.48.17,2.18.23A21.7,21.7,0,0,1,54,53.32c.37-1.7.67-2.11.88-2.34a3.65,3.65,0,0,1,.3-.27h0a3.31,3.31,0,0,1,1.58-.65A7,7,0,0,1,55.89,49.67ZM45.2,77.09a9.21,9.21,0,0,0-2,5.5,33.86,33.86,0,0,0,4.79.19,32.77,32.77,0,0,0,4.74-.48Zm6.47-32.82a5.72,5.72,0,0,1-.52-.7c-1.38,2.3-2.45,4.19-3.21,5.57-.55,1-1,1.92-1.59,3.14s-.85,2-1.1,2.7l2.39.2c.6-1.68,1.29-3.45,2.07-5.27s1.6-3.56,2.41-5.16A5.27,5.27,0,0,1,51.67,44.27Zm-11.19,29a12.47,12.47,0,0,0-2.09,2.48,11.24,11.24,0,0,0-1.51,3.72,9,9,0,0,0-.16.93c-.2,1.63.13,2.11.23,2.24.28.37.67.56,2.39,1,.74.18,1.64.38,2.66.58a10.58,10.58,0,0,1,.63-5,10.73,10.73,0,0,1,1.63-2.83ZM43,83.7l0,.55a2.72,2.72,0,0,0,.54-.19,1.49,1.49,0,0,0,.36-.23Z"/><path class="cls-8" d="M65.15,13.26a40.21,40.21,0,0,0-7.59-2.35,19.2,19.2,0,0,0-7.47-.09,20.42,20.42,0,0,0-2,.61,15.49,15.49,0,0,0-3,1.46,1.19,1.19,0,0,0-.41.41,1.38,1.38,0,0,0,0,1.1,12.51,12.51,0,0,1,2.68-1.75A14.15,14.15,0,0,1,54,11.43a23.2,23.2,0,0,1,6.65,1.1c1.83.56,2.88,1.11,5.45,1.73,1.2.29,2.2.47,2.87.57C68.07,14.42,66.75,13.87,65.15,13.26ZM76.78,9.88h0a17,17,0,0,0-6.44-6,18.44,18.44,0,0,0-8.17-2.76,17.44,17.44,0,0,0-6.95,1,22.09,22.09,0,0,0-9.47,7,2.8,2.8,0,0,0-.63,1.51,2.46,2.46,0,0,0,.21,1.17A17.12,17.12,0,0,1,49,10.32a19.07,19.07,0,0,1,9.27-.05,79.74,79.74,0,0,1,7.62,2.54c1.07.38,2,.76,3.95,1.52A21.23,21.23,0,0,1,73,15.73a11.84,11.84,0,0,1,3,2.59,7.83,7.83,0,0,0,1.78-4.74A7,7,0,0,0,76.78,9.88ZM86.85,47.39a35.23,35.23,0,0,0-4.77-2.84C81,44,79.46,43.19,77.66,42.33c-.15.57-.32,1.17-.49,1.8h0c-.58,2.14-1.23,4.61-1.93,7.35a39.89,39.89,0,0,0-1.57,8.77,31.57,31.57,0,0,0,0,3.63,12.21,12.21,0,0,0,1.07-2.23c.3-.82.32-1.19.71-2.4.08-.25.36-1.13.71-2A19.85,19.85,0,0,1,78,53.83a16,16,0,0,1,3-3.63,13.53,13.53,0,0,1,1.45-1.1,32.71,32.71,0,0,0-3.32,4.74A34,34,0,0,0,77,58.21a30,30,0,0,1,7.11-7.56,8.11,8.11,0,0,1,3.48-1.37,7.09,7.09,0,0,1,1.49,0A24.86,24.86,0,0,0,86.85,47.39ZM80.64,71.31c-.07-.5-.63-.77-1.12-1a5,5,0,0,0-1.79-.39,10,10,0,0,0-1.83,0,16.45,16.45,0,0,0-4.2,1.15,7.47,7.47,0,0,0-1.55.86,7.06,7.06,0,0,0-1,.94l1.35.37a9.13,9.13,0,0,1,5.46-1.69,8.89,8.89,0,0,1,3.83,1A1.4,1.4,0,0,0,80.64,71.31Zm-2,1.7a3.29,3.29,0,0,0-1.23-.47,8.1,8.1,0,0,0-1.77-.17,8.24,8.24,0,0,0-2.35.31,8.55,8.55,0,0,0-1.81.77l1.55.68a8.5,8.5,0,0,1,4.57.16,1.92,1.92,0,0,0,1-.45A2,2,0,0,0,79,73.3,3.67,3.67,0,0,0,78.64,73ZM72.73,61.6c0-.16,0-.33,0-.5h0c0-1.35.11-2.62.22-3.81l-3.56.15c-1.36.05-3.32.12-4.87.14a70.14,70.14,0,0,1-11.05-.48c-1.08-.14-1.58-.25-4.15-.6-1.93-.27-3.52-.47-4.58-.6-.48,1.45-.83,2.69-1.08,3.61a47.06,47.06,0,0,0-1.23,5.37c-.24,1.45-.36,2.69-.42,3.63a11.52,11.52,0,0,1,3.51-.07l.09,0h0a6,6,0,0,1,.66.15l.09,0,.59.16h0l.06,0,.11,0,.63.18.15,0,.4.12.09,0,.09,0,1,.32.11,0,.1,0,.12,0,.33.11.12,0,.07,0,.77.26.1,0,.32.11.35.11.09,0,.09,0,1.07.34.13,0,.19.06h0l.31.09L54,71l.44.13.08,0,.75.21.06,0h.07c.88.24,1.89.48,3,.71a2,2,0,0,1,.69-.38l.07,0h.2l.21,0h.33a6.6,6.6,0,0,1,.82,0l.33,0h.16l.15,0c.37,0,.71.06,1,.1h.15l.14,0,.28,0,.36,0,1.8.26.31,0h.19l.17,0,.11,0,.2,0h.11l.19,0h.26l.43,0,1,.08A21.94,21.94,0,0,1,73,67.33,53.7,53.7,0,0,1,72.73,61.6ZM55.89,49.67a6.18,6.18,0,0,1-2.43-1.89,5.35,5.35,0,0,1-.94-2.27c-.45.94-.84,1.8-1.17,2.56h0c-.29.65-.53,1.24-.74,1.74-.51,1.26-.93,2.41-1.25,3.27s-.62,1.71-.82,2.27c.91.18,1.88.35,2.9.48.75.1,1.48.17,2.18.23A21.7,21.7,0,0,1,54,53.32c.37-1.7.67-2.11.88-2.34a3.65,3.65,0,0,1,.3-.27h0a3.31,3.31,0,0,1,1.58-.65A7,7,0,0,1,55.89,49.67Zm.72-2.14a4.81,4.81,0,0,0-.61-.74,8.09,8.09,0,0,1-.94-.36,9.17,9.17,0,0,1-1.72-1,3.3,3.3,0,0,0,.34,1.37,3.79,3.79,0,0,0,1.2,1.33,10.18,10.18,0,0,0,2.5,1.4A4.9,4.9,0,0,0,56.61,47.53Zm12.17.76a18.66,18.66,0,0,1-4.28,1.63c-.73.2-1.32.32-1.53.36a39,39,0,0,1-4.19.47c-2.28.19-2.62.22-3,.58s-.59,1.07-.85,2.33a16.31,16.31,0,0,0-.34,2.56c2.24.19,4.68.31,7.28.32s5.3-.12,7.65-.32c.32-1.27.65-2.56,1-3.87.69-2.5,1.43-4.89,2.19-7.16A15.44,15.44,0,0,1,68.78,48.29Zm10.49,19.6c-.47-1-3.15-.51-3.3-.49a8.27,8.27,0,0,0-3.29,1.54,12.22,12.22,0,0,0-2.13,1.87A15.53,15.53,0,0,1,77.49,69c.56,0,1.09,0,1.6.06A1.24,1.24,0,0,0,79.27,67.89ZM75,41.19c-.78,2.3-1.55,4.7-2.29,7.19q-1.2,4.07-2.14,7.88h2.67q.83-4,1.9-8.25c.53-2.06,1.07-4,1.64-6Zm3.49-18.47a2.22,2.22,0,0,0-.8-1.8,1.69,1.69,0,0,0-1.28-.1A2.77,2.77,0,0,0,75,22.05a12.46,12.46,0,0,0-1.57,3c0,.58-.09,1.15-.13,1.73-.08,1.24-.16,2.48-.23,3.7a2,2,0,0,0,1.48,0,3,3,0,0,0,1.23-1.5c.21-.42.15-.45.36-.82a5.82,5.82,0,0,1,1-1.25,5.48,5.48,0,0,0,1.08-2.23A4.73,4.73,0,0,0,78.51,22.72ZM74,40a4,4,0,0,0-.71-1.69,9.28,9.28,0,0,1-1.06,2.15c-.12.18-.24.34-.37.51a11.34,11.34,0,0,1-1.81,1.77,21.5,21.5,0,0,1-5.42,3.49A5.24,5.24,0,0,0,62,47.86a3.88,3.88,0,0,0-.63,1.84A18.24,18.24,0,0,0,67.65,48a15.79,15.79,0,0,0,5.06-3.91l.14-.18A6,6,0,0,0,74,41.36,3.88,3.88,0,0,0,74,40Zm-1.89-4.52a20.09,20.09,0,0,1-2.62,4,22.39,22.39,0,0,1-4,3.66,21.35,21.35,0,0,1-4.14,2.56,19.61,19.61,0,0,1-4,1.37,6.56,6.56,0,0,1,.73,1.39,6.87,6.87,0,0,1,.39,1.38l1.78-.09a4.72,4.72,0,0,1,.33-1.4,4.89,4.89,0,0,1,.9-1.43,5.85,5.85,0,0,1,1.65-1.11,20.34,20.34,0,0,1,2-.87,15.12,15.12,0,0,0,2.64-1.7,17.94,17.94,0,0,0,3.14-2.68,13.32,13.32,0,0,0,1.25-1.62C72.15,37.78,72.15,36.61,72.14,35.44ZM58.83,33.29c-.83,0-1.64,0-2.41-.1-.37,0-.75.07-1.15.08a19.61,19.61,0,0,1-2.46-.05,10.09,10.09,0,0,0,9.54,0C61.24,33.28,60.06,33.31,58.83,33.29ZM64,35.15l-.64-1.74a11.33,11.33,0,0,1-8.55,1.26,9.76,9.76,0,0,1-2.67-1.26l-.54,1.41a7.41,7.41,0,0,0-.61,1.28,6.37,6.37,0,0,0-.22.84,7.13,7.13,0,0,0-.09.83c0,.49-.06.73-.06.9a6.83,6.83,0,0,0,.21,1.88,6,6,0,0,0,.32.91,3.24,3.24,0,0,1,0-.53,3.07,3.07,0,0,1,.17-.76,2.92,2.92,0,0,1,.35-.64A8.78,8.78,0,0,0,51.55,41a7.77,7.77,0,0,0,.08.88,5.74,5.74,0,0,0,.95,1.54,6.23,6.23,0,0,0,1.08,1,3.87,3.87,0,0,1-.32-1.71,7.6,7.6,0,0,0,1.2,2,7.35,7.35,0,0,0,1.18,1.15c0-.6.05-1.21.07-1.81a9.51,9.51,0,0,0,.49,1.32,10,10,0,0,0,.59,1.14,5.69,5.69,0,0,0,.61-.81,5.93,5.93,0,0,0,.74-1.82,6,6,0,0,1,.1.93,6.12,6.12,0,0,1-.1,1.22,5.8,5.8,0,0,0,.89-.66,6.09,6.09,0,0,0,1.45-2.05,3.13,3.13,0,0,1-.06,1,3.22,3.22,0,0,1-.27.72A6.57,6.57,0,0,0,61.42,44a6.5,6.5,0,0,0,1.71-3.21,6,6,0,0,1,0,1,6.12,6.12,0,0,1-.3,1.45,7.91,7.91,0,0,0,1.12-2A8.89,8.89,0,0,0,64,35.15ZM51.67,44.27a5.72,5.72,0,0,1-.52-.7c-1.38,2.3-2.45,4.19-3.21,5.57-.55,1-1,1.92-1.59,3.14s-.85,2-1.1,2.7l2.39.2c.6-1.68,1.29-3.45,2.07-5.27s1.6-3.56,2.41-5.16A5.27,5.27,0,0,1,51.67,44.27Zm-4.35.94c-1.48.48-2,.53-3,.89a13.87,13.87,0,0,0-1.77.83h0a9.52,9.52,0,0,0-1.2.76A14.2,14.2,0,0,0,38,51.75c-1.05,1.56-1,1.77-2.64,4.38-.42.68-.7,1.12-2.38,3.72-3.48,5.41-3.31,5.1-3.49,5.42a29.42,29.42,0,0,0-2.82,6h0a12.41,12.41,0,0,0-.44,1.85,5.9,5.9,0,0,0,.19,3,5.78,5.78,0,0,0,.83,1.51,7.91,7.91,0,0,0,3.62,2.44,26.84,26.84,0,0,0,2.75.9c.85.25,1.57.44,2.06.57a12.86,12.86,0,0,1,.53-3h0a13.1,13.1,0,0,1,.77-2,12.63,12.63,0,0,1,2.9-3.82A8.8,8.8,0,0,0,38.7,72,10.47,10.47,0,0,0,31.12,71a7.41,7.41,0,0,1,2.52-1.18,7.31,7.31,0,0,1,3.89.14,8.44,8.44,0,0,1,1.55.64c0-.13.09-.25.13-.38a7.57,7.57,0,0,0-1.52-1.33l-.15-.1a8.84,8.84,0,0,0-6.9-.7,7.27,7.27,0,0,1,5.85-1.22,6.69,6.69,0,0,1,1.49.56,7.2,7.2,0,0,1,2.34,2l.6-.45a23.44,23.44,0,0,0-1.8-3c-.19-.27-.38-.52-.57-.77a24.87,24.87,0,0,0-1.85-2.14,11.74,11.74,0,0,1,2.09,1.39c.13.11.27.23.4.36a11.08,11.08,0,0,1,1.59,1.8l-1.26-4.19-1.38-4.57a24.87,24.87,0,0,1,1.35,2.35c.19.36.36.71.52,1.06.26.58.5,1.13.7,1.66-.11-.83-.2-1.71-.25-2.64h0a32.57,32.57,0,0,1,.54-8c.18-.9.39-1.76.62-2.58a58.83,58.83,0,0,0-.26,6.71c0,1.78.14,3.61.34,5.47,0,.36.08.72.13,1.07.08-.32.34-1.37.73-2.77h0a59,59,0,0,1,3.22-9c.28-.56,1.09-2.14,2.24-4.14.19-.34.39-.68.6-1,.42-.71.77-1.3,1-1.68C49.12,44.57,48.32,44.89,47.32,45.21Zm-6.84,28.1a12.47,12.47,0,0,0-2.09,2.48,11.24,11.24,0,0,0-1.51,3.72,9,9,0,0,0-.16.93c-.2,1.63.13,2.11.23,2.24.28.37.67.56,2.39,1,.74.18,1.64.38,2.66.58a10.58,10.58,0,0,1,.63-5,10.73,10.73,0,0,1,1.63-2.83ZM43,83.7l0,.55a2.72,2.72,0,0,0,.54-.19,1.49,1.49,0,0,0,.36-.23Zm2.2-6.61a9.21,9.21,0,0,0-2,5.5,33.86,33.86,0,0,0,4.79.19,32.77,32.77,0,0,0,4.74-.48ZM53.43,72c-1.86-.61-3.46-1.28-6.35-2.14A11.67,11.67,0,0,0,45,69.38a10.32,10.32,0,0,0-1.54-.08h0A4.89,4.89,0,0,0,41,70a4.73,4.73,0,0,0-1.22,1.14,69,69,0,0,0,9.57,7.66,67.54,67.54,0,0,0,6,3.56c0-1.06.08-2,.15-2.67,0-.12,0-.24,0-.35a14.05,14.05,0,0,1,.89-4.06,11,11,0,0,1,1.2-2.18A38.77,38.77,0,0,1,53.43,72Zm10.4,4a12.88,12.88,0,0,1,1.51-2.7l-1.48-.21c-1.61-.21-2.11-.26-2.41-.28a4.8,4.8,0,0,0-2.28.1c-.2.09-.63.35-1.28,1.6a14.32,14.32,0,0,0-1.26,4.09,13.09,13.09,0,0,0-.28,2.29c0,.16,0,.33,0,.51A3.91,3.91,0,0,0,57.07,84c.33.36.73.54,2.34.9.87.2,2,.43,3.42.63-.09-.86-.12-1.66-.13-2.37s0-1.35.07-1.88A15.57,15.57,0,0,1,63.83,76Zm27.7-23.15a4.87,4.87,0,0,0-1.46-2.1h0a3.23,3.23,0,0,0-.63-.36,4.16,4.16,0,0,0-2.89.05,9.67,9.67,0,0,0-4.25,2.86,36.21,36.21,0,0,0-5.34,7,44.06,44.06,0,0,0-2.66,5.26,18.11,18.11,0,0,1,3.49-2.36,17.73,17.73,0,0,1,3.06-1.27c-.85.61-1.72,1.25-2.61,2Q76.48,65.27,75,66.62a6.29,6.29,0,0,1,4.51,0,5.14,5.14,0,0,1,1.23.74h-.53a2.45,2.45,0,0,1,.18,1.07,2.48,2.48,0,0,1-.24.9,2.21,2.21,0,0,1,1.48,2.5,2.16,2.16,0,0,1-1.67,1.59,2.31,2.31,0,0,1-.57,1,2,2,0,0,1-.68.46,3,3,0,0,1,1.25,2.37,6.49,6.49,0,0,0-3.47-2.23,6.28,6.28,0,0,0-2-.14A4.23,4.23,0,0,1,76,76.4a4.51,4.51,0,0,1,.52,1.37,12.68,12.68,0,0,0-2.53-2,14.62,14.62,0,0,0-4.06-1.63,20.67,20.67,0,0,0-3.39-.62,13.1,13.1,0,0,0-1.71,2.87c-.06.14-.11.27-.17.4v0a14.56,14.56,0,0,0-.73,7.87C71.16,86.91,77,86.89,79,86.09a15,15,0,0,0,3.1-1.71,13.33,13.33,0,0,0,1.69-1.53,22.44,22.44,0,0,0,3.74-6,58.92,58.92,0,0,0,3.67-12.61c.29-1.57.4-2.76.63-5.15C92.2,55.59,92.14,54.26,91.53,52.86Z"/><path class="cls-8" d="M92.66,52.37a7.81,7.81,0,0,0-.82-1.51h0l-.12-.2a9.92,9.92,0,0,0-1.8-2.32L89.54,48h0a25.17,25.17,0,0,0-2-1.59,35.78,35.78,0,0,0-4.93-2.93c-1.45-.77-3-1.53-4.46-2.25l-2.93-1.29a.78.78,0,0,0,0-.16,5.34,5.34,0,0,0-.93-2.23L73.25,36.1c0-.92,0-1.7,0-2.28a7.34,7.34,0,0,1,.21-1.58c.08-.29.17-.53.23-.7h.09a2.67,2.67,0,0,0,1.17-.25,3.79,3.79,0,0,0,1.67-1.92,3.93,3.93,0,0,0,.23-.54,1.65,1.65,0,0,1,.11-.26,2.63,2.63,0,0,1,.56-.69l.36-.39a6.37,6.37,0,0,0,1.27-2.58,5.47,5.47,0,0,0,.32-2.28,3.09,3.09,0,0,0-1.26-2.53A2.37,2.37,0,0,0,77,19.79a2.91,2.91,0,0,0-.74.1L77,19a8.93,8.93,0,0,0,2-5.43c0-3.32-2-5.6-3.43-7.11A17.29,17.29,0,0,0,70.89,3,19.59,19.59,0,0,0,62.24,0c-.39,0-.78,0-1.17,0a19,19,0,0,0-6.21,1.12,23.06,23.06,0,0,0-10,7.38A4,4,0,0,0,44,10.62a3.65,3.65,0,0,0,.3,1.71,2.6,2.6,0,0,0-.69,1.9,3.06,3.06,0,0,0,3.08,2.4c0,.32.1.66.14,1s.07.86.09,1.25h0v.35a4.85,4.85,0,0,1,1-.19l0-1.61v0a.62.62,0,0,1,0-.13h0L48,14.87a3.36,3.36,0,0,1,.6-.95,4.54,4.54,0,0,1,2.64-1.19,11.57,11.57,0,0,1,2.85-.23,23.4,23.4,0,0,1,5.36.64c2.72.67,3,1.27,6.25,2.1a15.91,15.91,0,0,0,3.51.52,15.14,15.14,0,0,0,1.62,0,2.35,2.35,0,0,1,.89.83A2.22,2.22,0,0,1,72,17.62c0,.1,0,.19,0,.28.09.66.16,1.35.22,2.08H73l0-.32c-.09-1-.21-1.86-.34-2.72a9.78,9.78,0,0,1,1.51,1.19c.76.73,1.13,1.09,1.18,1.61a.82.82,0,0,1,0,.27h1.08l-1,.95h-.64c-.15.21-.33.45-.52.75A10.65,10.65,0,0,0,73.17,24c0-1,0-2-.07-3.06h-.35l-.4.1,0,.64a41,41,0,0,1-.07,4.21c0,.61,0,1.5-.08,2.56,0,.9-.1,2-.15,2.51a15.56,15.56,0,0,1-1.41,5.37,12.57,12.57,0,0,1-4.64,5,3.29,3.29,0,0,0,.16-2.19,5.35,5.35,0,0,1-.73,2.07,5.23,5.23,0,0,1-1.22,1.4,14.6,14.6,0,0,0,.8-5.37,17.82,17.82,0,0,0-.32-1.81,6.52,6.52,0,0,0-.63-1.83,4.26,4.26,0,0,0-.7-.93l-.92,0h0c-.65,0-1.31,0-2,0H59.4c-.9,0-1.76,0-2.6-.08l-.38,0-.75.06-1,.06-.67,0H52.43v0l-.1,0h-.41a3.24,3.24,0,0,0-.61,1c-.1.26-.11.38-.25.76s-.23.52-.37.84a9.34,9.34,0,0,0-.39,1.16,9.45,9.45,0,0,0-.23,2.72,20.33,20.33,0,0,1-1.35-2.69,14.06,14.06,0,0,1-1.17-4.27,13.82,13.82,0,0,1-.06-1.71l.12-4.09a4,4,0,0,1-.55-.33,3.79,3.79,0,0,1-.37-.31l-.14,4.7v.08a14.48,14.48,0,0,0,.06,1.75A15.32,15.32,0,0,0,47.86,37a20.12,20.12,0,0,0,1.42,2.82c.24.56.52,1.14.82,1.73.19.38.39.74.58,1.09l-1.52.64c-.72.3-1.47.57-2.22.82s-1.15.34-1.57.46-.91.24-1.47.44a14.15,14.15,0,0,0-3.27,1.75,15.29,15.29,0,0,0-3.7,4.37c-.59.88-.86,1.35-1.23,2s-.7,1.22-1.43,2.41c-.41.66-.67,1.08-2.36,3.7L28.82,64c-.32.5-.34.52-.44.69A24.67,24.67,0,0,0,25,72.94a7.14,7.14,0,0,0,.25,3.6,6.88,6.88,0,0,0,1,1.85,9.12,9.12,0,0,0,4.12,2.83,28.09,28.09,0,0,0,2.87.93c.7.21,1.41.4,2.11.58l.32.08a2.35,2.35,0,0,0,.32.61c.57.75,1.38,1,3.08,1.44.73.18,1.48.34,2.23.49h.15a5,5,0,0,0,1.92-.08A6.54,6.54,0,0,0,45.93,84h2.13a35.22,35.22,0,0,0,4.91-.5l1.19-.21h0L55.6,84a3.3,3.3,0,0,0,.57.86c.6.64,1.3.89,3,1.27,1.09.24,2.21.45,3.33.62h0a5.67,5.67,0,0,0,1.68-.16,2.74,2.74,0,0,0,.8-.35h0a39.57,39.57,0,0,0,10.29,1.58,12.71,12.71,0,0,0,4.24-.58,16.53,16.53,0,0,0,3.39-1.87,15,15,0,0,0,1.84-1.67,23.33,23.33,0,0,0,4-6.33,59.9,59.9,0,0,0,3.76-12.89c.29-1.61.41-2.83.64-5.25C93.41,55.83,93.42,54.13,92.66,52.37ZM66.14,14.26c-2.57-.62-3.62-1.17-5.45-1.73A23.2,23.2,0,0,0,54,11.43a14.15,14.15,0,0,0-6.72,1.22,12.51,12.51,0,0,0-2.68,1.75,1.38,1.38,0,0,1,0-1.1,1.19,1.19,0,0,1,.41-.41,15.49,15.49,0,0,1,3-1.46,20.42,20.42,0,0,1,2-.61,19.2,19.2,0,0,1,7.47.09,40.21,40.21,0,0,1,7.59,2.35c1.6.61,2.92,1.16,3.86,1.57C68.34,14.73,67.34,14.55,66.14,14.26ZM73,15.73a21.23,21.23,0,0,0-3.16-1.4C68,13.57,67,13.19,65.93,12.81a79.74,79.74,0,0,0-7.62-2.54,19.07,19.07,0,0,0-9.27.05,17.12,17.12,0,0,0-3.72,1.55,2.46,2.46,0,0,1-.21-1.17,2.8,2.8,0,0,1,.63-1.51,22.09,22.09,0,0,1,9.47-7,17.44,17.44,0,0,1,6.95-1,18.44,18.44,0,0,1,8.17,2.76,17,17,0,0,1,6.44,6h0a7,7,0,0,1,1.06,3.7,7.83,7.83,0,0,1-1.78,4.74A11.84,11.84,0,0,0,73,15.73Zm4.13,28.4c.17-.63.34-1.23.49-1.8,1.8.86,3.29,1.63,4.42,2.22a35.23,35.23,0,0,1,4.77,2.84,24.86,24.86,0,0,1,2.25,1.85,7.09,7.09,0,0,0-1.49,0,8.11,8.11,0,0,0-3.48,1.37A30,30,0,0,0,77,58.21a34,34,0,0,1,2.1-4.37,32.71,32.71,0,0,1,3.32-4.74A13.53,13.53,0,0,0,81,50.2a16,16,0,0,0-3,3.63,19.85,19.85,0,0,0-1.82,3.42c-.35.87-.63,1.75-.71,2-.39,1.21-.41,1.58-.71,2.4a12.21,12.21,0,0,1-1.07,2.23,31.57,31.57,0,0,1,0-3.63,39.89,39.89,0,0,1,1.57-8.77c.7-2.74,1.35-5.21,1.93-7.35ZM75.94,71.55a9.13,9.13,0,0,0-5.46,1.69l-1.35-.37a7.06,7.06,0,0,1,1-.94,7.47,7.47,0,0,1,1.55-.86,16.45,16.45,0,0,1,4.2-1.15,10,10,0,0,1,1.83,0,5,5,0,0,1,1.79.39c.49.23,1,.5,1.12,1a1.4,1.4,0,0,1-.87,1.24A8.89,8.89,0,0,0,75.94,71.55ZM79,73.3a2,2,0,0,1-.42.54,1.92,1.92,0,0,1-1,.45A8.5,8.5,0,0,0,73,74.13l-1.55-.68a8.55,8.55,0,0,1,1.81-.77,8.24,8.24,0,0,1,2.35-.31,8.1,8.1,0,0,1,1.77.17,3.29,3.29,0,0,1,1.23.47A3.67,3.67,0,0,1,79,73.3ZM53.31,70.78l-.13,0-1.07-.34-.09,0-.09,0-.35-.11-.32-.11-.1,0-.77-.26-.07,0-.12,0-.33-.11-.12,0-.1,0-.11,0-1-.32-.09,0-.09,0-.4-.12-.15,0-.63-.18-.11,0-.06,0h0l-.59-.16-.09,0a6,6,0,0,0-.66-.15h0l-.09,0a11.52,11.52,0,0,0-3.51.07c.06-.94.18-2.18.42-3.63a47.06,47.06,0,0,1,1.23-5.37c.25-.92.6-2.16,1.08-3.61,1.06.13,2.65.33,4.58.6,2.57.35,3.07.46,4.15.6a70.14,70.14,0,0,0,11.05.48c1.55,0,3.51-.09,4.87-.14L73,57.29c-.11,1.19-.19,2.46-.22,3.81h0c0,.17,0,.34,0,.5A53.7,53.7,0,0,0,73,67.33a21.94,21.94,0,0,0-4.9,5.19l-1-.08-.43,0H66.4l-.19,0H66.1l-.2,0-.11,0-.17,0h-.19l-.31,0L63.32,72l-.36,0-.28,0-.14,0h-.15c-.3,0-.64-.07-1-.1l-.15,0h-.16l-.33,0a6.6,6.6,0,0,0-.82,0h-.33l-.21,0h-.2l-.07,0a2,2,0,0,0-.69.38c-1.13-.23-2.14-.47-3-.71h-.07l-.06,0-.75-.21-.08,0L54,71l-.19-.06-.31-.09h0Zm.15-23a6.18,6.18,0,0,0,2.43,1.89,7,7,0,0,0,.91.39,3.31,3.31,0,0,0-1.58.65h0a3.65,3.65,0,0,0-.3.27c-.21.23-.51.64-.88,2.34a21.7,21.7,0,0,0-.42,2.75c-.7-.06-1.43-.13-2.18-.23-1-.13-2-.3-2.9-.48.2-.56.47-1.34.82-2.27s.74-2,1.25-3.27c.21-.5.45-1.09.74-1.74h0c.33-.76.72-1.62,1.17-2.56A5.35,5.35,0,0,0,53.46,47.78Zm-.12-2.39a9.17,9.17,0,0,0,1.72,1,8.09,8.09,0,0,0,.94.36,4.81,4.81,0,0,1,.61.74,4.9,4.9,0,0,1,.77,2,10.18,10.18,0,0,1-2.5-1.4,3.79,3.79,0,0,1-1.2-1.33A3.3,3.3,0,0,1,53.34,45.39Zm5.44,5.36A39,39,0,0,0,63,50.28c.21,0,.8-.16,1.53-.36a18.66,18.66,0,0,0,4.28-1.63,15.44,15.44,0,0,0,4-3.1c-.76,2.27-1.5,4.66-2.19,7.16-.37,1.31-.7,2.6-1,3.87-2.35.2-4.91.33-7.65.32s-5-.13-7.28-.32a16.31,16.31,0,0,1,.34-2.56c.26-1.26.4-1.9.85-2.33S56.5,50.94,58.78,50.75ZM79.09,69c-.51,0-1-.07-1.6-.06a15.53,15.53,0,0,0-6.94,1.83,12.22,12.22,0,0,1,2.13-1.87A8.27,8.27,0,0,1,76,67.4c.15,0,2.83-.51,3.3.49A1.24,1.24,0,0,1,79.09,69ZM75,41.19,76.8,42C76.23,44,75.69,46,75.16,48q-1.08,4.26-1.9,8.25H70.59q.94-3.81,2.14-7.88C73.47,45.89,74.24,43.49,75,41.19Zm-1.74-14.4c0-.58.08-1.15.13-1.73a12.46,12.46,0,0,1,1.57-3,2.77,2.77,0,0,1,1.45-1.23,1.69,1.69,0,0,1,1.28.1,2.22,2.22,0,0,1,.8,1.8,4.73,4.73,0,0,1-.28,1.92,5.48,5.48,0,0,1-1.08,2.23,5.82,5.82,0,0,0-1,1.25c-.21.37-.15.4-.36.82a3,3,0,0,1-1.23,1.5,2,2,0,0,1-1.48,0C73.12,29.27,73.2,28,73.28,26.79Zm-1,13.63a9.28,9.28,0,0,0,1.06-2.15A4,4,0,0,1,74,40a3.88,3.88,0,0,1,0,1.4,6,6,0,0,1-1.14,2.54l-.14.18A15.79,15.79,0,0,1,67.65,48a18.24,18.24,0,0,1-6.24,1.71A3.88,3.88,0,0,1,62,47.86a5.24,5.24,0,0,1,2.62-1.67,21.5,21.5,0,0,0,5.42-3.49,11.34,11.34,0,0,0,1.81-1.77C72,40.76,72.14,40.6,72.26,40.42Zm-6.73,2.72a22.39,22.39,0,0,0,4-3.66,20.09,20.09,0,0,0,2.62-4c0,1.17,0,2.34,0,3.5a13.32,13.32,0,0,1-1.25,1.62,17.94,17.94,0,0,1-3.14,2.68,15.12,15.12,0,0,1-2.64,1.7,20.34,20.34,0,0,0-2,.87,5.85,5.85,0,0,0-1.65,1.11,4.89,4.89,0,0,0-.9,1.43,4.72,4.72,0,0,0-.33,1.4l-1.78.09a6.87,6.87,0,0,0-.39-1.38,6.56,6.56,0,0,0-.73-1.39,19.61,19.61,0,0,0,4-1.37A21.35,21.35,0,0,0,65.53,43.14ZM55.27,33.27c.4,0,.78,0,1.15-.08.77.05,1.58.08,2.41.1,1.23,0,2.41,0,3.52-.06a10.09,10.09,0,0,1-9.54,0A19.61,19.61,0,0,0,55.27,33.27Zm-4.7,5.4c0-.17,0-.41.06-.9a7.13,7.13,0,0,1,.09-.83,6.37,6.37,0,0,1,.22-.84,7.41,7.41,0,0,1,.61-1.28l.54-1.41a9.76,9.76,0,0,0,2.67,1.26,11.33,11.33,0,0,0,8.55-1.26L64,35.15a8.89,8.89,0,0,1,0,6.09,7.91,7.91,0,0,1-1.12,2,6.12,6.12,0,0,0,.3-1.45,6,6,0,0,0,0-1A6.5,6.5,0,0,1,61.42,44a6.57,6.57,0,0,1-1.19.94,3.22,3.22,0,0,0,.27-.72,3.13,3.13,0,0,0,.06-1,6.09,6.09,0,0,1-1.45,2.05,5.8,5.8,0,0,1-.89.66,6.12,6.12,0,0,0,.1-1.22,6,6,0,0,0-.1-.93,5.93,5.93,0,0,1-.74,1.82,5.69,5.69,0,0,1-.61.81,10,10,0,0,1-.59-1.14A9.51,9.51,0,0,1,55.79,44c0,.6,0,1.21-.07,1.81a7.35,7.35,0,0,1-1.18-1.15,7.6,7.6,0,0,1-1.2-2,3.87,3.87,0,0,0,.32,1.71,6.23,6.23,0,0,1-1.08-1,5.74,5.74,0,0,1-.95-1.54,7.77,7.77,0,0,1-.08-.88,8.78,8.78,0,0,1,.08-1.42,2.92,2.92,0,0,0-.35.64,3.07,3.07,0,0,0-.17.76,3.24,3.24,0,0,0,0,.53,6,6,0,0,1-.32-.91A6.83,6.83,0,0,1,50.57,38.67Zm.58,4.9a5.72,5.72,0,0,0,.52.7,5.27,5.27,0,0,0,.45.48c-.81,1.6-1.62,3.32-2.41,5.16s-1.47,3.59-2.07,5.27L45.25,55c.25-.68.61-1.62,1.1-2.7s1-2.13,1.59-3.14C48.7,47.76,49.77,45.87,51.15,43.57Zm-15,35h0a12.86,12.86,0,0,0-.53,3c-.49-.13-1.21-.32-2.06-.57a26.84,26.84,0,0,1-2.75-.9,7.91,7.91,0,0,1-3.62-2.44,5.78,5.78,0,0,1-.83-1.51,5.9,5.9,0,0,1-.19-3,12.41,12.41,0,0,1,.44-1.85h0a29.42,29.42,0,0,1,2.82-6c.18-.32,0,0,3.49-5.42,1.68-2.6,2-3,2.38-3.72,1.6-2.61,1.59-2.82,2.64-4.38a14.2,14.2,0,0,1,3.4-4.06,9.52,9.52,0,0,1,1.2-.76h0a13.87,13.87,0,0,1,1.77-.83c1-.36,1.52-.41,3-.89,1-.32,1.8-.64,2.31-.85-.24.38-.59,1-1,1.68-.21.36-.41.7-.6,1-1.15,2-2,3.58-2.24,4.14a59,59,0,0,0-3.22,9h0c-.39,1.4-.65,2.45-.73,2.77,0-.35-.09-.71-.13-1.07-.2-1.86-.31-3.69-.34-5.47a58.83,58.83,0,0,1,.26-6.71c-.23.82-.44,1.68-.62,2.58a32.57,32.57,0,0,0-.54,8h0c0,.93.14,1.81.25,2.64-.2-.53-.44-1.08-.7-1.66-.16-.35-.33-.7-.52-1.06a24.87,24.87,0,0,0-1.35-2.35l1.38,4.57,1.26,4.19a11.08,11.08,0,0,0-1.59-1.8c-.13-.13-.27-.25-.4-.36a11.74,11.74,0,0,0-2.09-1.39,24.87,24.87,0,0,1,1.85,2.14c.19.25.38.5.57.77a23.44,23.44,0,0,1,1.8,3l-.6.45a7.2,7.2,0,0,0-2.34-2,6.69,6.69,0,0,0-1.49-.56,7.27,7.27,0,0,0-5.85,1.22,8.84,8.84,0,0,1,6.9.7l.15.1a7.57,7.57,0,0,1,1.52,1.33c0,.13-.09.25-.13.38A8.44,8.44,0,0,0,37.53,70a7.31,7.31,0,0,0-3.89-.14A7.41,7.41,0,0,0,31.12,71,10.47,10.47,0,0,1,38.7,72a8.8,8.8,0,0,1,1.13.81,12.63,12.63,0,0,0-2.9,3.82A13.1,13.1,0,0,0,36.16,78.53ZM42,81.72a10.61,10.61,0,0,0,0,2.53c-1-.2-1.92-.4-2.66-.58-1.72-.43-2.11-.62-2.39-1-.1-.13-.43-.61-.23-2.24a9,9,0,0,1,.16-.93,11.24,11.24,0,0,1,1.51-3.72,12.47,12.47,0,0,1,2.09-2.48l3.78,3.1A10.52,10.52,0,0,0,42,81.72Zm1.5,2.34a2.72,2.72,0,0,1-.54.19l0-.55.87.13A1.49,1.49,0,0,1,43.51,84.06ZM48,82.78a33.86,33.86,0,0,1-4.79-.19,9.21,9.21,0,0,1,2-5.5l7.56,5.21A32.77,32.77,0,0,1,48,82.78Zm7.5-3.44c0,.11,0,.23,0,.35-.07.7-.14,1.61-.15,2.67a67.54,67.54,0,0,1-6-3.56,69,69,0,0,1-9.57-7.66A4.73,4.73,0,0,1,41,70a4.89,4.89,0,0,1,2.44-.7h0a10.32,10.32,0,0,1,1.54.08,11.67,11.67,0,0,1,2.12.46c2.89.86,4.49,1.53,6.35,2.14a38.77,38.77,0,0,0,4.18,1.12,11,11,0,0,0-1.2,2.18A14.05,14.05,0,0,0,55.52,79.34Zm7.18,3.84c0,.71,0,1.51.13,2.37-1.39-.2-2.55-.43-3.42-.63-1.61-.36-2-.54-2.34-.9a3.91,3.91,0,0,1-.71-2.61c0-.18,0-.35,0-.51a13.09,13.09,0,0,1,.28-2.29,14.32,14.32,0,0,1,1.26-4.09c.65-1.25,1.08-1.51,1.28-1.6a4.8,4.8,0,0,1,2.28-.1c.3,0,.8.07,2.41.28l1.48.21A12.88,12.88,0,0,0,63.83,76a15.57,15.57,0,0,0-1.06,5.29C62.73,81.83,62.7,82.47,62.7,83.18ZM91.87,59.11c-.23,2.39-.34,3.58-.63,5.15a58.92,58.92,0,0,1-3.67,12.61,22.44,22.44,0,0,1-3.74,6,13.33,13.33,0,0,1-1.69,1.53A15,15,0,0,1,79,86.09c-2,.8-7.88.82-15.16-1.46a14.56,14.56,0,0,1,.73-7.87v0c.06-.13.11-.26.17-.4a13.1,13.1,0,0,1,1.71-2.87,20.67,20.67,0,0,1,3.39.62,14.62,14.62,0,0,1,4.06,1.63,12.68,12.68,0,0,1,2.53,2A4.51,4.51,0,0,0,76,76.4,4.23,4.23,0,0,0,74.49,75a6.28,6.28,0,0,1,2,.14,6.49,6.49,0,0,1,3.47,2.23A3,3,0,0,0,78.66,75a2,2,0,0,0,.68-.46,2.31,2.31,0,0,0,.57-1,2.16,2.16,0,0,0,1.67-1.59,2.21,2.21,0,0,0-1.48-2.5,2.48,2.48,0,0,0,.24-.9,2.45,2.45,0,0,0-.18-1.07h.53a5.14,5.14,0,0,0-1.23-.74,6.29,6.29,0,0,0-4.51,0q1.53-1.35,3.29-2.73c.89-.7,1.76-1.34,2.61-2a17.73,17.73,0,0,0-3.06,1.27,18.11,18.11,0,0,0-3.49,2.36A44.06,44.06,0,0,1,77,60.31a36.21,36.21,0,0,1,5.34-7,9.67,9.67,0,0,1,4.25-2.86,4.16,4.16,0,0,1,2.89-.05,3.23,3.23,0,0,1,.63.36h0a4.87,4.87,0,0,1,1.46,2.1C92.14,54.26,92.2,55.59,91.87,59.11Z"/><path class="cls-8" d="M43.87,83.83a1.49,1.49,0,0,1-.36.23,2.72,2.72,0,0,1-.54.19l0-.55Z"/><path class="cls-8" d="M44.26,76.41A10.52,10.52,0,0,0,42,81.72a10.61,10.61,0,0,0,0,2.53c-1-.2-1.92-.4-2.66-.58-1.72-.43-2.11-.62-2.39-1-.1-.13-.43-.61-.23-2.24a9,9,0,0,1,.16-.93,11.24,11.24,0,0,1,1.51-3.72,12.47,12.47,0,0,1,2.09-2.48Z"/><path class="cls-8" d="M49.63,44.36c-.24.38-.59,1-1,1.68-.21.36-.41.7-.6,1-1.15,2-2,3.58-2.24,4.14a59,59,0,0,0-3.22,9h0c-.39,1.4-.65,2.45-.73,2.77,0-.35-.09-.71-.13-1.07-.2-1.86-.31-3.69-.34-5.47a58.83,58.83,0,0,1,.26-6.71c-.23.82-.44,1.68-.62,2.58a32.57,32.57,0,0,0-.54,8h0c0,.93.14,1.81.25,2.64-.2-.53-.44-1.08-.7-1.66-.16-.35-.33-.7-.52-1.06a24.87,24.87,0,0,0-1.35-2.35l1.38,4.57,1.26,4.19a11.08,11.08,0,0,0-1.59-1.8c-.13-.13-.27-.25-.4-.36a11.74,11.74,0,0,0-2.09-1.39,24.87,24.87,0,0,1,1.85,2.14c.19.25.38.5.57.77a23.44,23.44,0,0,1,1.8,3l-.6.45a7.2,7.2,0,0,0-2.34-2,6.69,6.69,0,0,0-1.49-.56,7.27,7.27,0,0,0-5.85,1.22,8.84,8.84,0,0,1,6.9.7l.15.1a7.57,7.57,0,0,1,1.52,1.33c0,.13-.09.25-.13.38A8.44,8.44,0,0,0,37.53,70a7.31,7.31,0,0,0-3.89-.14A7.41,7.41,0,0,0,31.12,71,10.47,10.47,0,0,1,38.7,72a8.8,8.8,0,0,1,1.13.81,12.63,12.63,0,0,0-2.9,3.82,13.1,13.1,0,0,0-.77,2h0a12.86,12.86,0,0,0-.53,3c-.49-.13-1.21-.32-2.06-.57a26.84,26.84,0,0,1-2.75-.9,7.91,7.91,0,0,1-3.62-2.44,5.78,5.78,0,0,1-.83-1.51,5.9,5.9,0,0,1-.19-3,12.41,12.41,0,0,1,.44-1.85h0a29.42,29.42,0,0,1,2.82-6c.18-.32,0,0,3.49-5.42,1.68-2.6,2-3,2.38-3.72,1.6-2.61,1.59-2.82,2.64-4.38a14.2,14.2,0,0,1,3.4-4.06,9.52,9.52,0,0,1,1.2-.76h0a13.87,13.87,0,0,1,1.77-.83c1-.36,1.52-.41,3-.89C48.32,44.89,49.12,44.57,49.63,44.36Z"/><path class="cls-8" d="M52.12,44.75c-.81,1.6-1.62,3.32-2.41,5.16s-1.47,3.59-2.07,5.27L45.25,55c.25-.68.61-1.62,1.1-2.7s1-2.13,1.59-3.14c.76-1.38,1.83-3.27,3.21-5.57a5.72,5.72,0,0,0,.52.7A5.27,5.27,0,0,0,52.12,44.75Z"/><path class="cls-8" d="M52.44,32.86l-.1,0h.09Z"/><path class="cls-8" d="M52.76,82.3a32.77,32.77,0,0,1-4.74.48,33.86,33.86,0,0,1-4.79-.19,9.21,9.21,0,0,1,2-5.5Z"/><path class="cls-8" d="M56.8,50.06a3.31,3.31,0,0,0-1.58.65h0a3.65,3.65,0,0,0-.3.27c-.21.23-.51.64-.88,2.34a21.7,21.7,0,0,0-.42,2.75c-.7-.06-1.43-.13-2.18-.23-1-.13-2-.3-2.9-.48.2-.56.47-1.34.82-2.27s.74-2,1.25-3.27c.21-.5.45-1.09.74-1.74h0c.33-.76.72-1.62,1.17-2.56a5.35,5.35,0,0,0,.94,2.27,6.18,6.18,0,0,0,2.43,1.89A7,7,0,0,0,56.8,50.06Z"/><path class="cls-8" d="M57.61,73.1a11,11,0,0,0-1.2,2.18,14.05,14.05,0,0,0-.89,4.06c0,.11,0,.23,0,.35-.07.7-.14,1.61-.15,2.67a67.54,67.54,0,0,1-6-3.56,69,69,0,0,1-9.57-7.66A4.73,4.73,0,0,1,41,70a4.89,4.89,0,0,1,2.44-.7h0a10.32,10.32,0,0,1,1.54.08,11.67,11.67,0,0,1,2.12.46c2.89.86,4.49,1.53,6.35,2.14A38.77,38.77,0,0,0,57.61,73.1Z"/><path class="cls-8" d="M57.38,49.49a10.18,10.18,0,0,1-2.5-1.4,3.79,3.79,0,0,1-1.2-1.33,3.3,3.3,0,0,1-.34-1.37,9.17,9.17,0,0,0,1.72,1,8.09,8.09,0,0,0,.94.36,4.81,4.81,0,0,1,.61.74A4.9,4.9,0,0,1,57.38,49.49Z"/><path class="cls-8" d="M62.35,33.23a10.09,10.09,0,0,1-9.54,0,19.61,19.61,0,0,0,2.46.05c.4,0,.78,0,1.15-.08.77.05,1.58.08,2.41.1C60.06,33.31,61.24,33.28,62.35,33.23Z"/><path class="cls-8" d="M64,41.24a7.91,7.91,0,0,1-1.12,2,6.12,6.12,0,0,0,.3-1.45,6,6,0,0,0,0-1A6.5,6.5,0,0,1,61.42,44a6.57,6.57,0,0,1-1.19.94,3.22,3.22,0,0,0,.27-.72,3.13,3.13,0,0,0,.06-1,6.09,6.09,0,0,1-1.45,2.05,5.8,5.8,0,0,1-.89.66,6.12,6.12,0,0,0,.1-1.22,6,6,0,0,0-.1-.93,5.93,5.93,0,0,1-.74,1.82,5.69,5.69,0,0,1-.61.81,10,10,0,0,1-.59-1.14A9.51,9.51,0,0,1,55.79,44c0,.6,0,1.21-.07,1.81a7.35,7.35,0,0,1-1.18-1.15,7.6,7.6,0,0,1-1.2-2,3.87,3.87,0,0,0,.32,1.71,6.23,6.23,0,0,1-1.08-1,5.74,5.74,0,0,1-.95-1.54,7.77,7.77,0,0,1-.08-.88,8.78,8.78,0,0,1,.08-1.42,2.92,2.92,0,0,0-.35.64,3.07,3.07,0,0,0-.17.76,3.24,3.24,0,0,0,0,.53,6,6,0,0,1-.32-.91,6.83,6.83,0,0,1-.21-1.88c0-.17,0-.41.06-.9a7.13,7.13,0,0,1,.09-.83,6.37,6.37,0,0,1,.22-.84,7.41,7.41,0,0,1,.61-1.28l.54-1.41a9.76,9.76,0,0,0,2.67,1.26,11.33,11.33,0,0,0,8.55-1.26L64,35.15A8.89,8.89,0,0,1,64,41.24Z"/><path class="cls-8" d="M62.77,81.3c0,.53-.07,1.17-.07,1.88s0,1.51.13,2.37c-1.39-.2-2.55-.43-3.42-.63-1.61-.36-2-.54-2.34-.9a3.91,3.91,0,0,1-.71-2.61c0-.18,0-.35,0-.51a13.09,13.09,0,0,1,.28-2.29,14.32,14.32,0,0,1,1.26-4.09c.65-1.25,1.08-1.51,1.28-1.6a4.8,4.8,0,0,1,2.28-.1c.3,0,.8.07,2.41.28l1.48.21A12.88,12.88,0,0,0,63.83,76,15.57,15.57,0,0,0,62.77,81.3Z"/><path class="cls-8" d="M69,14.83c-.67-.1-1.67-.28-2.87-.57-2.57-.62-3.62-1.17-5.45-1.73A23.2,23.2,0,0,0,54,11.43a14.15,14.15,0,0,0-6.72,1.22,12.51,12.51,0,0,0-2.68,1.75,1.38,1.38,0,0,1,0-1.1,1.19,1.19,0,0,1,.41-.41,15.49,15.49,0,0,1,3-1.46,20.42,20.42,0,0,1,2-.61,19.2,19.2,0,0,1,7.47.09,40.21,40.21,0,0,1,7.59,2.35C66.75,13.87,68.07,14.42,69,14.83Z"/><path class="cls-8" d="M73,67.33a21.94,21.94,0,0,0-4.9,5.19l-1-.08-.43,0H66.4l-.19,0H66.1l-.2,0-.11,0-.17,0h-.19l-.31,0L63.32,72l-.36,0-.28,0-.14,0h-.15c-.3,0-.64-.07-1-.1l-.15,0h-.16l-.33,0a6.6,6.6,0,0,0-.82,0h-.33l-.21,0h-.2l-.07,0a2,2,0,0,0-.69.38c-1.13-.23-2.14-.47-3-.71h-.07l-.06,0-.75-.21-.08,0L54,71l-.19-.06-.31-.09h0l-.19-.06-.13,0-1.07-.34-.09,0-.09,0-.35-.11-.32-.11-.1,0-.77-.26-.07,0-.12,0-.33-.11-.12,0-.1,0-.11,0-1-.32-.09,0-.09,0-.4-.12-.15,0-.63-.18-.11,0-.06,0h0l-.59-.16-.09,0a6,6,0,0,0-.66-.15h0l-.09,0a11.52,11.52,0,0,0-3.51.07c.06-.94.18-2.18.42-3.63a47.06,47.06,0,0,1,1.23-5.37c.25-.92.6-2.16,1.08-3.61,1.06.13,2.65.33,4.58.6,2.57.35,3.07.46,4.15.6a70.14,70.14,0,0,0,11.05.48c1.55,0,3.51-.09,4.87-.14L73,57.29c-.11,1.19-.19,2.46-.22,3.81h0c0,.17,0,.34,0,.5A53.7,53.7,0,0,0,73,67.33Z"/><path class="cls-8" d="M72.74,45.19c-.76,2.27-1.5,4.66-2.19,7.16-.37,1.31-.7,2.6-1,3.87-2.35.2-4.91.33-7.65.32s-5-.13-7.28-.32a16.31,16.31,0,0,1,.34-2.56c.26-1.26.4-1.9.85-2.33s.71-.39,3-.58A39,39,0,0,0,63,50.28c.21,0,.8-.16,1.53-.36a18.66,18.66,0,0,0,4.28-1.63A15.44,15.44,0,0,0,72.74,45.19Z"/><path class="cls-8" d="M72.16,38.94a13.32,13.32,0,0,1-1.25,1.62,17.94,17.94,0,0,1-3.14,2.68,15.12,15.12,0,0,1-2.64,1.7,20.34,20.34,0,0,0-2,.87,5.85,5.85,0,0,0-1.65,1.11,4.89,4.89,0,0,0-.9,1.43,4.72,4.72,0,0,0-.33,1.4l-1.78.09a6.87,6.87,0,0,0-.39-1.38,6.56,6.56,0,0,0-.73-1.39,19.61,19.61,0,0,0,4-1.37,21.35,21.35,0,0,0,4.14-2.56,22.39,22.39,0,0,0,4-3.66,20.09,20.09,0,0,0,2.62-4C72.15,36.61,72.15,37.78,72.16,38.94Z"/><path class="cls-8" d="M74,41.36a6,6,0,0,1-1.14,2.54l-.14.18A15.79,15.79,0,0,1,67.65,48a18.24,18.24,0,0,1-6.24,1.71A3.88,3.88,0,0,1,62,47.86a5.24,5.24,0,0,1,2.62-1.67,21.5,21.5,0,0,0,5.42-3.49,11.34,11.34,0,0,0,1.81-1.77c.13-.17.25-.33.37-.51a9.28,9.28,0,0,0,1.06-2.15A4,4,0,0,1,74,40,3.88,3.88,0,0,1,74,41.36Z"/><path class="cls-8" d="M76.8,42C76.23,44,75.69,46,75.16,48q-1.08,4.26-1.9,8.25H70.59q.94-3.81,2.14-7.88c.74-2.49,1.51-4.89,2.29-7.19Z"/><path class="cls-8" d="M77.84,13.58a7.83,7.83,0,0,1-1.78,4.74,11.84,11.84,0,0,0-3-2.59,21.23,21.23,0,0,0-3.16-1.4C68,13.57,67,13.19,65.93,12.81a79.74,79.74,0,0,0-7.62-2.54,19.07,19.07,0,0,0-9.27.05,17.12,17.12,0,0,0-3.72,1.55,2.46,2.46,0,0,1-.21-1.17,2.8,2.8,0,0,1,.63-1.51,22.09,22.09,0,0,1,9.47-7,17.44,17.44,0,0,1,6.95-1,18.44,18.44,0,0,1,8.17,2.76,17,17,0,0,1,6.44,6h0A7,7,0,0,1,77.84,13.58Z"/><path class="cls-8" d="M78.23,24.64a5.48,5.48,0,0,1-1.08,2.23,5.82,5.82,0,0,0-1,1.25c-.21.37-.15.4-.36.82a3,3,0,0,1-1.23,1.5,2,2,0,0,1-1.48,0c.07-1.22.15-2.46.23-3.7,0-.58.08-1.15.13-1.73a12.46,12.46,0,0,1,1.57-3,2.77,2.77,0,0,1,1.45-1.23,1.69,1.69,0,0,1,1.28.1,2.22,2.22,0,0,1,.8,1.8A4.73,4.73,0,0,1,78.23,24.64Z"/><path class="cls-8" d="M79,73.3a2,2,0,0,1-.42.54,1.92,1.92,0,0,1-1,.45A8.5,8.5,0,0,0,73,74.13l-1.55-.68a8.55,8.55,0,0,1,1.81-.77,8.24,8.24,0,0,1,2.35-.31,8.1,8.1,0,0,1,1.77.17,3.29,3.29,0,0,1,1.23.47A3.67,3.67,0,0,1,79,73.3Z"/><path class="cls-8" d="M79.09,69c-.51,0-1-.07-1.6-.06a15.53,15.53,0,0,0-6.94,1.83,12.22,12.22,0,0,1,2.13-1.87A8.27,8.27,0,0,1,76,67.4c.15,0,2.83-.51,3.3.49A1.24,1.24,0,0,1,79.09,69Z"/><path class="cls-8" d="M79.77,72.55a8.89,8.89,0,0,0-3.83-1,9.13,9.13,0,0,0-5.46,1.69l-1.35-.37a7.06,7.06,0,0,1,1-.94,7.47,7.47,0,0,1,1.55-.86,16.45,16.45,0,0,1,4.2-1.15,10,10,0,0,1,1.83,0,5,5,0,0,1,1.79.39c.49.23,1,.5,1.12,1A1.4,1.4,0,0,1,79.77,72.55Z"/><path class="cls-8" d="M89.1,49.24a7.09,7.09,0,0,0-1.49,0,8.11,8.11,0,0,0-3.48,1.37A30,30,0,0,0,77,58.21a34,34,0,0,1,2.1-4.37,32.71,32.71,0,0,1,3.32-4.74A13.53,13.53,0,0,0,81,50.2a16,16,0,0,0-3,3.63,19.85,19.85,0,0,0-1.82,3.42c-.35.87-.63,1.75-.71,2-.39,1.21-.41,1.58-.71,2.4a12.21,12.21,0,0,1-1.07,2.23,31.57,31.57,0,0,1,0-3.63,39.89,39.89,0,0,1,1.57-8.77c.7-2.74,1.35-5.21,1.93-7.35h0c.17-.63.34-1.23.49-1.8,1.8.86,3.29,1.63,4.42,2.22a35.23,35.23,0,0,1,4.77,2.84A24.86,24.86,0,0,1,89.1,49.24Z"/><path class="cls-8" d="M91.87,59.11c-.23,2.39-.34,3.58-.63,5.15a58.92,58.92,0,0,1-3.67,12.61,22.44,22.44,0,0,1-3.74,6,13.33,13.33,0,0,1-1.69,1.53A15,15,0,0,1,79,86.09c-2,.8-7.88.82-15.16-1.46a14.56,14.56,0,0,1,.73-7.87v0c.06-.13.11-.26.17-.4a13.1,13.1,0,0,1,1.71-2.87,20.67,20.67,0,0,1,3.39.62,14.62,14.62,0,0,1,4.06,1.63,12.68,12.68,0,0,1,2.53,2A4.51,4.51,0,0,0,76,76.4,4.23,4.23,0,0,0,74.49,75a6.28,6.28,0,0,1,2,.14,6.49,6.49,0,0,1,3.47,2.23A3,3,0,0,0,78.66,75a2,2,0,0,0,.68-.46,2.31,2.31,0,0,0,.57-1,2.16,2.16,0,0,0,1.67-1.59,2.21,2.21,0,0,0-1.48-2.5,2.48,2.48,0,0,0,.24-.9,2.45,2.45,0,0,0-.18-1.07h.53a5.14,5.14,0,0,0-1.23-.74,6.29,6.29,0,0,0-4.51,0q1.53-1.35,3.29-2.73c.89-.7,1.76-1.34,2.61-2a17.73,17.73,0,0,0-3.06,1.27,18.11,18.11,0,0,0-3.49,2.36A44.06,44.06,0,0,1,77,60.31a36.21,36.21,0,0,1,5.34-7,9.67,9.67,0,0,1,4.25-2.86,4.16,4.16,0,0,1,2.89-.05,3.23,3.23,0,0,1,.63.36h0a4.87,4.87,0,0,1,1.46,2.1C92.14,54.26,92.2,55.59,91.87,59.11Z"/><path class="cls-8" d="M52.63,21.46a.18.18,0,1,0,0,.36.18.18,0,0,0,0-.36Zm0,0a.18.18,0,1,0,0,.36.18.18,0,0,0,0-.36Zm0,0a.18.18,0,1,0,0,.36.18.18,0,0,0,0-.36Zm0,0a.18.18,0,1,0,0,.36.18.18,0,0,0,0-.36Zm1.52-1.24c-.26-.1-.54-.19-.85-.28l-.66-.15a10.79,10.79,0,0,0-1.29-.16,8,8,0,0,0-1,0c-.45,0-1,0-1.7.07l-.85.07-.08,2.61-.1,3.43a4.21,4.21,0,0,0,2.42.5,5,5,0,0,0,3.36-.94,4,4,0,0,0,1-1.29c.05-.12.11-.24.15-.35l0-.12,0-.1,0-.09.06-.19,0-.09,0-.09a.57.57,0,0,1,0-.14l0-.14.06-.26h0l0-.11c0-.07,0-.14,0-.21s0-.24.07-.35A1.46,1.46,0,0,0,54.15,20.22Zm-3.16,0a3.67,3.67,0,0,1,1.89.16,4.68,4.68,0,0,0-1.85,0,4.61,4.61,0,0,0-1.94.89A3.58,3.58,0,0,1,51,20.18Zm-1.46,2.28a1.75,1.75,0,0,0-.47,0,2,2,0,0,0-.44.12l.11-.15v0l.1-.13,0,0,.11-.12v0h0v0l.1-.11.08-.08,0,0,0,0,.16-.15.06,0h0l.11-.09.09-.07.09-.06a1.09,1.09,0,0,1,.17-.13L50,21.2l.09-.06.09-.05.05,0,0,0,.09,0,.08,0,.07,0,.1,0,.21-.08.1,0h.17l.11,0,.09,0,.2,0,.11,0H52a2.71,2.71,0,0,1,1.06.21,3.12,3.12,0,0,1,1.55,1.65L53.84,22l0,0a1.53,1.53,0,0,1,.27.79l-.19,0h-.9c-.45,0-.58.09-1,.09a4.55,4.55,0,0,1-1-.18A8.67,8.67,0,0,0,49.53,22.46Zm3.1-.64a.18.18,0,0,0,0-.36.18.18,0,1,0,0,.36Zm0-.36a.18.18,0,1,0,0,.36.18.18,0,0,0,0-.36Zm0,0a.18.18,0,1,0,0,.36.18.18,0,0,0,0-.36Zm0,0a.18.18,0,1,0,0,.36.18.18,0,0,0,0-.36Zm0,0a.18.18,0,1,0,0,.36.18.18,0,0,0,0-.36Z"/><circle class="cls-8" cx="57.28" cy="53.54" r="0.95"/><path class="cls-9" d="M43.87,83.83a1.49,1.49,0,0,1-.36.23,2.72,2.72,0,0,1-.54.19l0-.55Z"/><path class="cls-10" d="M72.74,45.19c-.76,2.27-1.5,4.66-2.19,7.16-.37,1.31-.7,2.6-1,3.87-2.35.2-4.91.33-7.65.32s-5-.13-7.28-.32a16.31,16.31,0,0,1,.34-2.56c.26-1.26.4-1.9.85-2.33s.71-.39,3-.58A39,39,0,0,0,63,50.28c.21,0,.8-.16,1.53-.36a18.66,18.66,0,0,0,4.28-1.63A15.44,15.44,0,0,0,72.74,45.19Z"/><path class="cls-10" d="M49.63,44.36c-.24.38-.59,1-1,1.68-.21.36-.41.7-.6,1-1.15,2-2,3.58-2.24,4.14a59,59,0,0,0-3.22,9h0c-.39,1.4-.65,2.45-.73,2.77,0-.35-.09-.71-.13-1.07-.2-1.86-.31-3.69-.34-5.47a58.83,58.83,0,0,1,.26-6.71c-.23.82-.44,1.68-.62,2.58a32.57,32.57,0,0,0-.54,8h0c0,.93.14,1.81.25,2.64-.2-.53-.44-1.08-.7-1.66-.16-.35-.33-.7-.52-1.06a24.87,24.87,0,0,0-1.35-2.35l1.38,4.57,1.26,4.19a11.08,11.08,0,0,0-1.59-1.8c-.13-.13-.27-.25-.4-.36a11.74,11.74,0,0,0-2.09-1.39,24.87,24.87,0,0,1,1.85,2.14c.19.25.38.5.57.77a23.44,23.44,0,0,1,1.8,3l-.6.45a7.2,7.2,0,0,0-2.34-2,6.69,6.69,0,0,0-1.49-.56,7.27,7.27,0,0,0-5.85,1.22,8.84,8.84,0,0,1,6.9.7l.15.1a7.57,7.57,0,0,1,1.52,1.33c0,.13-.09.25-.13.38A8.44,8.44,0,0,0,37.53,70a7.31,7.31,0,0,0-3.89-.14A7.41,7.41,0,0,0,31.12,71,10.47,10.47,0,0,1,38.7,72a8.8,8.8,0,0,1,1.13.81,12.63,12.63,0,0,0-2.9,3.82,13.1,13.1,0,0,0-.77,2h0a12.86,12.86,0,0,0-.53,3c-.49-.13-1.21-.32-2.06-.57a26.84,26.84,0,0,1-2.75-.9,7.91,7.91,0,0,1-3.62-2.44,5.78,5.78,0,0,1-.83-1.51,5.9,5.9,0,0,1-.19-3,12.41,12.41,0,0,1,.44-1.85h0a29.42,29.42,0,0,1,2.82-6c.18-.32,0,0,3.49-5.42,1.68-2.6,2-3,2.38-3.72,1.6-2.61,1.59-2.82,2.64-4.38a14.2,14.2,0,0,1,3.4-4.06,9.52,9.52,0,0,1,1.2-.76h0a13.87,13.87,0,0,1,1.77-.83c1-.36,1.52-.41,3-.89C48.32,44.89,49.12,44.57,49.63,44.36Z"/><path class="cls-10" d="M44.26,76.41A10.52,10.52,0,0,0,42,81.72a10.61,10.61,0,0,0,0,2.53c-1-.2-1.92-.4-2.66-.58-1.72-.43-2.11-.62-2.39-1-.1-.13-.43-.61-.23-2.24a9,9,0,0,1,.16-.93,11.24,11.24,0,0,1,1.51-3.72,12.47,12.47,0,0,1,2.09-2.48Z"/><path class="cls-10" d="M62.77,81.3c0,.53-.07,1.17-.07,1.88s0,1.51.13,2.37c-1.39-.2-2.55-.43-3.42-.63-1.61-.36-2-.54-2.34-.9a3.91,3.91,0,0,1-.71-2.61c0-.18,0-.35,0-.51a13.09,13.09,0,0,1,.28-2.29,14.32,14.32,0,0,1,1.26-4.09c.65-1.25,1.08-1.51,1.28-1.6a4.8,4.8,0,0,1,2.28-.1c.3,0,.8.07,2.41.28l1.48.21A12.88,12.88,0,0,0,63.83,76,15.57,15.57,0,0,0,62.77,81.3Z"/><path class="cls-10" d="M91.87,59.11c-.23,2.39-.34,3.58-.63,5.15a58.92,58.92,0,0,1-3.67,12.61,22.44,22.44,0,0,1-3.74,6,13.33,13.33,0,0,1-1.69,1.53A15,15,0,0,1,79,86.09c-2,.8-7.88.82-15.16-1.46a14.56,14.56,0,0,1,.73-7.87v0c.06-.13.11-.26.17-.4a13.1,13.1,0,0,1,1.71-2.87,20.67,20.67,0,0,1,3.39.62,14.62,14.62,0,0,1,4.06,1.63,12.68,12.68,0,0,1,2.53,2A4.51,4.51,0,0,0,76,76.4,4.23,4.23,0,0,0,74.49,75a6.28,6.28,0,0,1,2,.14,6.49,6.49,0,0,1,3.47,2.23A3,3,0,0,0,78.66,75a2,2,0,0,0,.68-.46,2.31,2.31,0,0,0,.57-1,2.16,2.16,0,0,0,1.67-1.59,2.21,2.21,0,0,0-1.48-2.5,2.48,2.48,0,0,0,.24-.9,2.45,2.45,0,0,0-.18-1.07h.53a5.14,5.14,0,0,0-1.23-.74,6.29,6.29,0,0,0-4.51,0q1.53-1.35,3.29-2.73c.89-.7,1.76-1.34,2.61-2a17.73,17.73,0,0,0-3.06,1.27,18.11,18.11,0,0,0-3.49,2.36A44.06,44.06,0,0,1,77,60.31a36.21,36.21,0,0,1,5.34-7,9.67,9.67,0,0,1,4.25-2.86,4.16,4.16,0,0,1,2.89-.05,3.23,3.23,0,0,1,.63.36h0a4.87,4.87,0,0,1,1.46,2.1C92.14,54.26,92.2,55.59,91.87,59.11Z"/><path class="cls-10" d="M89.1,49.24a7.09,7.09,0,0,0-1.49,0,8.11,8.11,0,0,0-3.48,1.37A30,30,0,0,0,77,58.21a34,34,0,0,1,2.1-4.37,32.71,32.71,0,0,1,3.32-4.74A13.53,13.53,0,0,0,81,50.2a16,16,0,0,0-3,3.63,19.85,19.85,0,0,0-1.82,3.42c-.35.87-.63,1.75-.71,2-.39,1.21-.41,1.58-.71,2.4a12.21,12.21,0,0,1-1.07,2.23,31.57,31.57,0,0,1,0-3.63,39.89,39.89,0,0,1,1.57-8.77c.7-2.74,1.35-5.21,1.93-7.35h0c.17-.63.34-1.23.49-1.8,1.8.86,3.29,1.63,4.42,2.22a35.23,35.23,0,0,1,4.77,2.84A24.86,24.86,0,0,1,89.1,49.24Z"/><path class="cls-10" d="M56.8,50.06a3.31,3.31,0,0,0-1.58.65h0a3.65,3.65,0,0,0-.3.27c-.21.23-.51.64-.88,2.34a21.7,21.7,0,0,0-.42,2.75c-.7-.06-1.43-.13-2.18-.23-1-.13-2-.3-2.9-.48.2-.56.47-1.34.82-2.27s.74-2,1.25-3.27c.21-.5.45-1.09.74-1.74h0c.33-.76.72-1.62,1.17-2.56a5.35,5.35,0,0,0,.94,2.27,6.18,6.18,0,0,0,2.43,1.89A7,7,0,0,0,56.8,50.06Z"/><path class="cls-9" d="M57.38,49.49a10.18,10.18,0,0,1-2.5-1.4,3.79,3.79,0,0,1-1.2-1.33,3.3,3.3,0,0,1-.34-1.37,9.17,9.17,0,0,0,1.72,1,8.09,8.09,0,0,0,.94.36,4.81,4.81,0,0,1,.61.74A4.9,4.9,0,0,1,57.38,49.49Z"/><path class="cls-10" d="M74,41.36a6,6,0,0,1-1.14,2.54l-.14.18A15.79,15.79,0,0,1,67.65,48a18.24,18.24,0,0,1-6.24,1.71A3.88,3.88,0,0,1,62,47.86a5.24,5.24,0,0,1,2.62-1.67,21.5,21.5,0,0,0,5.42-3.49,11.34,11.34,0,0,0,1.81-1.77c.13-.17.25-.33.37-.51a9.28,9.28,0,0,0,1.06-2.15A4,4,0,0,1,74,40,3.88,3.88,0,0,1,74,41.36Z"/><path class="cls-11" d="M76.8,42C76.23,44,75.69,46,75.16,48q-1.08,4.26-1.9,8.25H70.59q.94-3.81,2.14-7.88c.74-2.49,1.51-4.89,2.29-7.19Z"/><path class="cls-11" d="M52.12,44.75c-.81,1.6-1.62,3.32-2.41,5.16s-1.47,3.59-2.07,5.27L45.25,55c.25-.68.61-1.62,1.1-2.7s1-2.13,1.59-3.14c.76-1.38,1.83-3.27,3.21-5.57a5.72,5.72,0,0,0,.52.7A5.27,5.27,0,0,0,52.12,44.75Z"/><path class="cls-11" d="M73,67.33a21.94,21.94,0,0,0-4.9,5.19l-1-.08-.43,0H66.4l-.19,0H66.1l-.2,0-.11,0-.17,0h-.19l-.31,0L63.32,72l-.36,0-.28,0-.14,0h-.15c-.3,0-.64-.07-1-.1l-.15,0h-.16l-.33,0a6.6,6.6,0,0,0-.82,0h-.33l-.21,0h-.2l-.07,0a2,2,0,0,0-.69.38c-1.13-.23-2.14-.47-3-.71h-.07l-.06,0-.75-.21-.08,0L54,71l-.19-.06-.31-.09h0l-.19-.06-.13,0-1.07-.34-.09,0-.09,0-.35-.11-.32-.11-.1,0-.77-.26-.07,0-.12,0-.33-.11-.12,0-.1,0-.11,0-1-.32-.09,0-.09,0-.4-.12-.15,0-.63-.18-.11,0-.06,0h0l-.59-.16-.09,0a6,6,0,0,0-.66-.15h0l-.09,0a11.52,11.52,0,0,0-3.51.07c.06-.94.18-2.18.42-3.63a47.06,47.06,0,0,1,1.23-5.37c.25-.92.6-2.16,1.08-3.61,1.06.13,2.65.33,4.58.6,2.57.35,3.07.46,4.15.6a70.14,70.14,0,0,0,11.05.48c1.55,0,3.51-.09,4.87-.14L73,57.29c-.11,1.19-.19,2.46-.22,3.81h0c0,.17,0,.34,0,.5A53.7,53.7,0,0,0,73,67.33Z"/><path class="cls-12" d="M52.63,21.46a.18.18,0,1,0,0,.36.18.18,0,0,0,0-.36Zm0,0a.18.18,0,1,0,0,.36.18.18,0,0,0,0-.36Zm0,0a.18.18,0,1,0,0,.36.18.18,0,0,0,0-.36Zm0,0a.18.18,0,1,0,0,.36.18.18,0,0,0,0-.36Zm0,0a.18.18,0,1,0,0,.36.18.18,0,0,0,0-.36Zm9.72-.16a.21.21,0,0,0-.21.2.22.22,0,0,0,.21.21.21.21,0,0,0,.2-.21A.2.2,0,0,0,62.35,21.3Zm-9.72.16a.18.18,0,1,0,0,.36.18.18,0,0,0,0-.36Zm9.72-.16a.21.21,0,0,0-.21.2.22.22,0,0,0,.21.21.21.21,0,0,0,.2-.21A.2.2,0,0,0,62.35,21.3Zm-9.72.16a.18.18,0,1,0,0,.36.18.18,0,0,0,0-.36Zm9.72-.16a.21.21,0,0,0-.21.2.22.22,0,0,0,.21.21.21.21,0,0,0,.2-.21A.2.2,0,0,0,62.35,21.3Zm0,0a.21.21,0,0,0-.21.2.22.22,0,0,0,.21.21.21.21,0,0,0,.2-.21A.2.2,0,0,0,62.35,21.3Zm-9.72.16a.18.18,0,1,0,0,.36.18.18,0,0,0,0-.36Zm0,0a.18.18,0,1,0,0,.36.18.18,0,0,0,0-.36Zm9.72-.16a.21.21,0,0,0-.21.2.22.22,0,0,0,.21.21.21.21,0,0,0,.2-.21A.2.2,0,0,0,62.35,21.3Zm-9.72.16a.18.18,0,1,0,0,.36.18.18,0,0,0,0-.36Zm9.72-.16a.21.21,0,0,0-.21.2.22.22,0,0,0,.21.21.21.21,0,0,0,.2-.21A.2.2,0,0,0,62.35,21.3Zm-9.72.16a.18.18,0,1,0,0,.36.18.18,0,0,0,0-.36Zm0,0a.18.18,0,1,0,0,.36.18.18,0,0,0,0-.36Zm0,0a.18.18,0,1,0,0,.36.18.18,0,0,0,0-.36Zm0,0a.18.18,0,1,0,0,.36.18.18,0,0,0,0-.36Zm0,0a.18.18,0,1,0,0,.36.18.18,0,0,0,0-.36Zm0,0a.18.18,0,1,0,0,.36.18.18,0,0,0,0-.36Zm-1.28-1.83a8,8,0,0,0-1,0l2.27.19A10.79,10.79,0,0,0,51.35,19.63Zm1.28,1.83a.18.18,0,1,0,0,.36.18.18,0,0,0,0-.36Zm0,0a.18.18,0,1,0,0,.36.18.18,0,0,0,0-.36Zm0,0a.18.18,0,1,0,0,.36.18.18,0,0,0,0-.36Zm0,0a.18.18,0,1,0,0,.36.18.18,0,0,0,0-.36Zm0,0a.18.18,0,1,0,0,.36.18.18,0,0,0,0-.36Zm0,0a.18.18,0,1,0,0,.36.18.18,0,0,0,0-.36Zm0,0a.18.18,0,1,0,0,.36.18.18,0,0,0,0-.36Zm9.72-.16a.21.21,0,0,0-.21.2.22.22,0,0,0,.21.21.21.21,0,0,0,.2-.21A.2.2,0,0,0,62.35,21.3Zm0,0a.21.21,0,0,0-.21.2.22.22,0,0,0,.21.21.21.21,0,0,0,.2-.21A.2.2,0,0,0,62.35,21.3Zm0,0a.21.21,0,0,0-.21.2.22.22,0,0,0,.21.21.21.21,0,0,0,.2-.21A.2.2,0,0,0,62.35,21.3Zm0,0a.21.21,0,0,0-.21.2.22.22,0,0,0,.21.21.21.21,0,0,0,.2-.21A.2.2,0,0,0,62.35,21.3Zm0,0a.21.21,0,0,0-.21.2.22.22,0,0,0,.21.21.21.21,0,0,0,.2-.21A.2.2,0,0,0,62.35,21.3Zm0,0a.21.21,0,0,0-.21.2.22.22,0,0,0,.21.21.21.21,0,0,0,.2-.21A.2.2,0,0,0,62.35,21.3Zm0,0a.21.21,0,0,0-.21.2.22.22,0,0,0,.21.21.21.21,0,0,0,.2-.21A.2.2,0,0,0,62.35,21.3Zm0,0a.21.21,0,0,0-.21.2.22.22,0,0,0,.21.21.21.21,0,0,0,.2-.21A.2.2,0,0,0,62.35,21.3Zm0,0a.21.21,0,0,0-.21.2.22.22,0,0,0,.21.21.21.21,0,0,0,.2-.21A.2.2,0,0,0,62.35,21.3Zm0,0a.21.21,0,0,0-.21.2.22.22,0,0,0,.21.21.21.21,0,0,0,.2-.21A.2.2,0,0,0,62.35,21.3Zm0,0a.21.21,0,0,0-.21.2.22.22,0,0,0,.21.21.21.21,0,0,0,.2-.21A.2.2,0,0,0,62.35,21.3Zm0,0a.21.21,0,0,0-.21.2.22.22,0,0,0,.21.21.21.21,0,0,0,.2-.21A.2.2,0,0,0,62.35,21.3Zm0,0a.21.21,0,0,0-.21.2.22.22,0,0,0,.21.21.21.21,0,0,0,.2-.21A.2.2,0,0,0,62.35,21.3Zm0,0a.21.21,0,0,0-.21.2.22.22,0,0,0,.21.21.21.21,0,0,0,.2-.21A.2.2,0,0,0,62.35,21.3Zm0,0a.21.21,0,0,0-.21.2.22.22,0,0,0,.21.21.21.21,0,0,0,.2-.21A.2.2,0,0,0,62.35,21.3Zm-8.2-3.4A4.31,4.31,0,0,0,52,17.23c-1.55-.22-2.33-.34-3,.15A2.52,2.52,0,0,0,48,18.84a12.26,12.26,0,0,1,1.82-.19,13.34,13.34,0,0,1,5.38,1A3.24,3.24,0,0,0,54.15,17.9Zm5,1.91.47-.2Zm2.42-.73,1-.11C62.23,19,61.88,19,61.53,19.08Zm1.9-.14c-.28,0-.54,0-.81,0,.51,0,1,0,1.55,0C63.9,18.94,63.66,18.94,63.43,18.94Zm.79,0h0l1.16.06.39,0C65.13,19,64.62,19,64.22,19Zm1.54.08.75.08C66.26,19.08,66,19.06,65.76,19Zm.76.09.9.25A3.74,3.74,0,0,0,66.52,19.13Zm1-1.22c-1-.88-2.16-.89-3.85-.89s-2.86,0-3.76.84a3.38,3.38,0,0,0-.94,1.74,14.11,14.11,0,0,1,4.81-.92,14.27,14.27,0,0,1,4.64.7A3.38,3.38,0,0,0,67.48,17.91Zm-.54,8.25a1.59,1.59,0,0,0,.51-.45A3.64,3.64,0,0,1,66.94,26.16ZM62.35,21.3a.21.21,0,0,0-.21.2.22.22,0,0,0,.21.21.21.21,0,0,0,.2-.21A.2.2,0,0,0,62.35,21.3Zm-9.72.16a.18.18,0,1,0,0,.36.18.18,0,0,0,0-.36Zm9.72-.16a.21.21,0,0,0-.21.2.22.22,0,0,0,.21.21.21.21,0,0,0,.2-.21A.2.2,0,0,0,62.35,21.3Zm-9.72.16a.18.18,0,1,0,0,.36.18.18,0,0,0,0-.36Zm0,0a.18.18,0,1,0,0,.36.18.18,0,0,0,0-.36Zm9.72-.16a.21.21,0,0,0-.21.2.22.22,0,0,0,.21.21.21.21,0,0,0,.2-.21A.2.2,0,0,0,62.35,21.3Zm0,0a.21.21,0,0,0-.21.2.22.22,0,0,0,.21.21.21.21,0,0,0,.2-.21A.2.2,0,0,0,62.35,21.3Zm-9.72.16a.18.18,0,1,0,0,.36.18.18,0,0,0,0-.36Zm9.72-.16a.21.21,0,0,0-.21.2.22.22,0,0,0,.21.21.21.21,0,0,0,.2-.21A.2.2,0,0,0,62.35,21.3Zm-9.72.16a.18.18,0,1,0,0,.36.18.18,0,0,0,0-.36Zm9.72-.16a.21.21,0,0,0-.21.2.22.22,0,0,0,.21.21.21.21,0,0,0,.2-.21A.2.2,0,0,0,62.35,21.3Zm-9.72.16a.18.18,0,1,0,0,.36.18.18,0,0,0,0-.36Zm9.72-.16a.21.21,0,0,0-.21.2.22.22,0,0,0,.21.21.21.21,0,0,0,.2-.21A.2.2,0,0,0,62.35,21.3Zm-9.72.16a.18.18,0,1,0,0,.36.18.18,0,0,0,0-.36Zm9.72-.16a.21.21,0,0,0-.21.2.22.22,0,0,0,.21.21.21.21,0,0,0,.2-.21A.2.2,0,0,0,62.35,21.3Zm-9.72.16a.18.18,0,1,0,0,.36.18.18,0,0,0,0-.36Zm0,0a.18.18,0,1,0,0,.36.18.18,0,0,0,0-.36Zm0,0a.18.18,0,1,0,0,.36.18.18,0,0,0,0-.36Z"/><polygon class="cls-13" points="46.87 19.97 46.86 20.12 46.86 20.12 46.87 19.97 46.87 19.97"/><path class="cls-14" d="M64,41.24a7.91,7.91,0,0,1-1.12,2,6.12,6.12,0,0,0,.3-1.45,6,6,0,0,0,0-1A6.5,6.5,0,0,1,61.42,44a6.57,6.57,0,0,1-1.19.94,3.22,3.22,0,0,0,.27-.72,3.13,3.13,0,0,0,.06-1,6.09,6.09,0,0,1-1.45,2.05,5.8,5.8,0,0,1-.89.66,6.12,6.12,0,0,0,.1-1.22,6,6,0,0,0-.1-.93,5.93,5.93,0,0,1-.74,1.82,5.69,5.69,0,0,1-.61.81,10,10,0,0,1-.59-1.14A9.51,9.51,0,0,1,55.79,44c0,.6,0,1.21-.07,1.81a7.35,7.35,0,0,1-1.18-1.15,7.6,7.6,0,0,1-1.2-2,3.87,3.87,0,0,0,.32,1.71,6.23,6.23,0,0,1-1.08-1,5.74,5.74,0,0,1-.95-1.54,7.77,7.77,0,0,1-.08-.88,8.78,8.78,0,0,1,.08-1.42,2.92,2.92,0,0,0-.35.64,3.07,3.07,0,0,0-.17.76,3.24,3.24,0,0,0,0,.53,6,6,0,0,1-.32-.91,6.83,6.83,0,0,1-.21-1.88c0-.17,0-.41.06-.9a7.13,7.13,0,0,1,.09-.83,6.37,6.37,0,0,1,.22-.84,7.41,7.41,0,0,1,.61-1.28,7,7,0,0,0,.9,3.52c.12.2.24.38.36.55a3.69,3.69,0,0,1,.22-.55,4.31,4.31,0,0,1,.31-.54,4.82,4.82,0,0,0,.1,1,3.76,3.76,0,0,0,.18.59c.1-.28.72-1.91,1.82-2.35a4.92,4.92,0,0,0,3,.15c.83.61.81,2.51.81,2.8a7.13,7.13,0,0,0,1.16-.93,7,7,0,0,0,.71-.79,3.37,3.37,0,0,1,.06.6,2.54,2.54,0,0,1,0,.41,6.46,6.46,0,0,0,1.21-1.39,5.6,5.6,0,0,0,.57-1.06c.07.2.14.4.2.6a5,5,0,0,0,.46-.79A4.66,4.66,0,0,0,64,35.15,8.89,8.89,0,0,1,64,41.24Z"/><path class="cls-8" d="M61,28.8a1.17,1.17,0,0,1-.06.2A1.17,1.17,0,0,0,61,28.8Z"/><path class="cls-8" d="M60.6,36a5.37,5.37,0,0,1-2.16,1.15,4.92,4.92,0,0,1-3-.15,5.2,5.2,0,0,1-1.8-1.18,8.76,8.76,0,0,0,3.36.81A9.06,9.06,0,0,0,60.6,36Z"/><path class="cls-11" d="M57.14,30.33h0a1.22,1.22,0,0,1-.8.36,1.89,1.89,0,0,1-1-.26l-.18-.11h2Z"/><path class="cls-11" d="M72.31,25.93c0,.61,0,1.5-.08,2.56,0,.9-.1,2-.15,2.51a15.56,15.56,0,0,1-1.41,5.37,12.57,12.57,0,0,1-4.64,5,3.29,3.29,0,0,0,.16-2.19,5.35,5.35,0,0,1-.73,2.07,5.23,5.23,0,0,1-1.22,1.4,14.6,14.6,0,0,0,.8-5.37,17.82,17.82,0,0,0-.32-1.81,6.52,6.52,0,0,0-.63-1.83,4.26,4.26,0,0,0-.7-.93l-.92,0h0c-.65,0-1.31,0-2,0H59.4c-.9,0-1.76,0-2.6-.08l-.38,0-.75.06-1,.06-.67,0h-2a3.24,3.24,0,0,0-.61,1c-.1.26-.11.38-.25.76s-.23.52-.37.84a9.34,9.34,0,0,0-.39,1.16,9.45,9.45,0,0,0-.23,2.72,20.33,20.33,0,0,1-1.35-2.69,14.06,14.06,0,0,1-1.17-4.27,13.82,13.82,0,0,1-.06-1.71,15.15,15.15,0,0,0,.38,1.87c.08.33.18.64.27.93,0-.17,0-.36,0-.54,0-.38,0-.76.06-1.12.09.33.2.67.32,1,.25.74.52,1.44.8,2.09a3.34,3.34,0,0,1,0-.43h0a4.39,4.39,0,0,1,1.42-3,5.19,5.19,0,0,1,2.61-1,6.3,6.3,0,0,1,1.15-.1c.37.28.64.47.84.59a1,1,0,0,0,.57.21,2.19,2.19,0,0,0,.89-.2,3.87,3.87,0,0,0,.53-.28,4.41,4.41,0,0,0,.46-.32c1.09,0,1.11-.05,1.9,0,2.74.2,3.72.77,4.05,1a5.69,5.69,0,0,1,1.14,1,5.54,5.54,0,0,1,1.26,2.47c.08.56.13,1,.16,1.43a10.92,10.92,0,0,0,.91-1.23,8.6,8.6,0,0,0,.46-.81,3.23,3.23,0,0,1,.15.58,4.13,4.13,0,0,1,0,.57c.21-.3.43-.63.64-1a11.33,11.33,0,0,0,.78-1.64,1.76,1.76,0,0,1,.16.43,2.14,2.14,0,0,1,.06.67c.21-.36.43-.78.64-1.24a11.92,11.92,0,0,0,.6-1.68l.18.79Z"/><path class="cls-12" d="M59.58,19.61l-.47.2Z"/><path class="cls-12" d="M64.17,19c-.53,0-1,0-1.55,0,.27,0,.53,0,.81,0S63.9,18.94,64.17,19Z"/><path class="cls-12" d="M66.51,19.12,65.76,19C66,19.06,66.26,19.08,66.51,19.12Z"/><path class="cls-12" d="M67.42,19.38l-.9-.25A3.74,3.74,0,0,1,67.42,19.38Z"/><path class="cls-12" d="M45.52,21.63v0Z"/><path class="cls-12" d="M52.64,19.79l-2.27-.19a8,8,0,0,1,1,0A10.79,10.79,0,0,1,52.64,19.79Z"/><path class="cls-12" d="M52.64,19.79l-2.27-.19a8,8,0,0,1,1,0A10.79,10.79,0,0,1,52.64,19.79Z"/><path class="cls-12" d="M62.57,19l-1,.11C61.88,19,62.23,19,62.57,19Z"/><path class="cls-12" d="M65.73,19l-.39,0L64.18,19h0C64.62,19,65.13,19,65.73,19Z"/><path class="cls-12" d="M67.45,25.71a1.59,1.59,0,0,1-.51.45A3.64,3.64,0,0,0,67.45,25.71Z"/><path class="cls-8" d="M52.81,21.64a.18.18,0,0,1-.18.18.18.18,0,1,1,0-.36A.18.18,0,0,1,52.81,21.64Z"/><path class="cls-15" d="M50.86,20.8l-.21.08Z"/><path class="cls-3" d="M52.81,21.64a.18.18,0,0,1-.18.18.18.18,0,1,1,0-.36A.18.18,0,0,1,52.81,21.64Z"/><path class="cls-8" d="M52.81,21.64a.18.18,0,0,1-.18.18.18.18,0,1,1,0-.36A.18.18,0,0,1,52.81,21.64Z"/><path class="cls-3" d="M52.81,21.64a.18.18,0,0,1-.18.18.18.18,0,1,1,0-.36A.18.18,0,0,1,52.81,21.64Z"/><path class="cls-8" d="M62.55,21.5a.21.21,0,0,1-.2.21.22.22,0,0,1-.21-.21.21.21,0,0,1,.21-.2A.2.2,0,0,1,62.55,21.5Z"/><path class="cls-3" d="M62.55,21.5a.21.21,0,0,1-.2.21.22.22,0,0,1-.21-.21.21.21,0,0,1,.21-.2A.2.2,0,0,1,62.55,21.5Z"/><path class="cls-8" d="M62.55,21.5a.21.21,0,0,1-.2.21.22.22,0,0,1-.21-.21.21.21,0,0,1,.21-.2A.2.2,0,0,1,62.55,21.5Z"/><path class="cls-3" d="M62.55,21.5a.21.21,0,0,1-.2.21.22.22,0,0,1-.21-.21.21.21,0,0,1,.21-.2A.2.2,0,0,1,62.55,21.5Z"/><path class="cls-8" d="M55.21,19.6a13.34,13.34,0,0,0-5.38-1,12.26,12.26,0,0,0-1.82.19,2.52,2.52,0,0,1,.93-1.46c.69-.49,1.47-.37,3-.15a4.31,4.31,0,0,1,2.19.67A3.24,3.24,0,0,1,55.21,19.6Z"/><path class="cls-8" d="M68.38,19.38a14.27,14.27,0,0,0-4.64-.7,14.11,14.11,0,0,0-4.81.92,3.38,3.38,0,0,1,.94-1.74c.9-.84,2-.84,3.76-.84s2.9,0,3.85.89A3.38,3.38,0,0,1,68.38,19.38Z"/><path class="cls-11" d="M74.82,21c-.15.21-.33.45-.52.75A10.65,10.65,0,0,0,73.17,24c0-1,0-2-.07-3.06Z"/><path class="cls-11" d="M75.34,20c-.91,0-1.69,0-2.31,0h0l0-.32c-.09-1-.21-1.86-.34-2.72a9.78,9.78,0,0,1,1.51,1.19c.76.73,1.13,1.09,1.18,1.61A.82.82,0,0,1,75.34,20Z"/><path class="cls-11" d="M69,14.83c-.67-.1-1.67-.28-2.87-.57-2.57-.62-3.62-1.17-5.45-1.73A23.2,23.2,0,0,0,54,11.43a14.15,14.15,0,0,0-6.72,1.22,12.51,12.51,0,0,0-2.68,1.75,1.38,1.38,0,0,1,0-1.1,1.19,1.19,0,0,1,.41-.41,15.49,15.49,0,0,1,3-1.46,20.42,20.42,0,0,1,2-.61,19.2,19.2,0,0,1,7.47.09,40.21,40.21,0,0,1,7.59,2.35C66.75,13.87,68.07,14.42,69,14.83Z"/><path class="cls-11" d="M77.84,13.58a7.83,7.83,0,0,1-1.78,4.74,11.84,11.84,0,0,0-3-2.59,21.23,21.23,0,0,0-3.16-1.4C68,13.57,67,13.19,65.93,12.81a79.74,79.74,0,0,0-7.62-2.54,19.07,19.07,0,0,0-9.27.05,17.12,17.12,0,0,0-3.72,1.55,2.46,2.46,0,0,1-.21-1.17,2.8,2.8,0,0,1,.63-1.51,22.09,22.09,0,0,1,9.47-7,17.44,17.44,0,0,1,6.95-1,18.44,18.44,0,0,1,8.17,2.76,17,17,0,0,1,6.44,6h0A7,7,0,0,1,77.84,13.58Z"/><path class="cls-16" d="M53.48,29.91h-.26l-.13,0h-.31l-.12,0-.12,0-.07,0h0l-.06,0-.09,0-.08,0h0l-.17.05-.1,0-.1,0-.08,0-.07,0-.08,0a.2.2,0,0,0-.08,0l-.16.07-.08.05-.08,0-.07,0h0l0,0a3.25,3.25,0,0,0-.92.76,2.86,2.86,0,0,0-.34.54h0l0,.09,0,.06h0l0,0s0,0,0,0l0,.09h0s0,.08,0,.11l0,.1v0h0l0,.13s0,0,0,.05h0s0,0,0,.07l0,.13a.5.5,0,0,0,0,.12l0,.13a5,5,0,0,0,0,1.26h0a3.34,3.34,0,0,0,0,.43c-.28-.65-.55-1.35-.8-2.09-.12-.34-.23-.68-.32-1,0,.36,0,.74-.06,1.12,0,.18,0,.37,0,.54-.09-.29-.19-.6-.27-.93a15.15,15.15,0,0,1-.38-1.87l.12-4.09a4.75,4.75,0,0,0,2.18.42h.27a5.59,5.59,0,0,0,3.77-1.1l.27-.24a2.57,2.57,0,0,1-.64,1.52,3.78,3.78,0,0,0-.5.53.86.86,0,0,0-.07.1l0,.05-.07.11-.12.21,0,0s0,0,0,0l0,.05h0s0,0,0,0v.05a1,1,0,0,0,0,.35v.07s0,0,0,0h0v0a.06.06,0,0,0,0,0v0s0,0,0,.06h0a.75.75,0,0,0,.08.18s0,0,0,0l0,0,0,.06h0l0,.05.11.14A1.89,1.89,0,0,0,53.48,29.91Z"/><path class="cls-17" d="M52.76,82.3a32.77,32.77,0,0,1-4.74.48,33.86,33.86,0,0,1-4.79-.19,9.21,9.21,0,0,1,2-5.5Z"/><path class="cls-16" d="M57.61,73.1a11,11,0,0,0-1.2,2.18,14.05,14.05,0,0,0-.89,4.06c0,.11,0,.23,0,.35-.07.7-.14,1.61-.15,2.67a67.54,67.54,0,0,1-6-3.56,69,69,0,0,1-9.57-7.66A4.73,4.73,0,0,1,41,70a4.89,4.89,0,0,1,2.44-.7h0a10.32,10.32,0,0,1,1.54.08,11.67,11.67,0,0,1,2.12.46c2.89.86,4.49,1.53,6.35,2.14A38.77,38.77,0,0,0,57.61,73.1Z"/><path class="cls-16" d="M72.16,38.94a13.32,13.32,0,0,1-1.25,1.62,17.94,17.94,0,0,1-3.14,2.68,15.12,15.12,0,0,1-2.64,1.7,20.34,20.34,0,0,0-2,.87,5.85,5.85,0,0,0-1.65,1.11,4.89,4.89,0,0,0-.9,1.43,4.72,4.72,0,0,0-.33,1.4l-1.78.09a6.87,6.87,0,0,0-.39-1.38,6.56,6.56,0,0,0-.73-1.39,19.61,19.61,0,0,0,4-1.37,21.35,21.35,0,0,0,4.14-2.56,22.39,22.39,0,0,0,4-3.66,20.09,20.09,0,0,0,2.62-4C72.15,36.61,72.15,37.78,72.16,38.94Z"/><path class="cls-16" d="M79.09,69c-.51,0-1-.07-1.6-.06a15.53,15.53,0,0,0-6.94,1.83,12.22,12.22,0,0,1,2.13-1.87A8.27,8.27,0,0,1,76,67.4c.15,0,2.83-.51,3.3.49A1.24,1.24,0,0,1,79.09,69Z"/><path class="cls-16" d="M79.77,72.55a8.89,8.89,0,0,0-3.83-1,9.13,9.13,0,0,0-5.46,1.69l-1.35-.37a7.06,7.06,0,0,1,1-.94,7.47,7.47,0,0,1,1.55-.86,16.45,16.45,0,0,1,4.2-1.15,10,10,0,0,1,1.83,0,5,5,0,0,1,1.79.39c.49.23,1,.5,1.12,1A1.4,1.4,0,0,1,79.77,72.55Z"/><path class="cls-16" d="M79,73.3a2,2,0,0,1-.42.54,1.92,1.92,0,0,1-1,.45A8.5,8.5,0,0,0,73,74.13l-1.55-.68a8.55,8.55,0,0,1,1.81-.77,8.24,8.24,0,0,1,2.35-.31,8.1,8.1,0,0,1,1.77.17,3.29,3.29,0,0,1,1.23.47A3.67,3.67,0,0,1,79,73.3Z"/><path class="cls-18" d="M62.35,33.23a10.09,10.09,0,0,1-9.54,0,19.61,19.61,0,0,0,2.46.05c.4,0,.78,0,1.15-.08.77.05,1.58.08,2.41.1C60.06,33.31,61.24,33.28,62.35,33.23Z"/><path class="cls-16" d="M72.06,17.9c0-.09,0-.18,0-.28a2.22,2.22,0,0,0-.34-1.07,2.35,2.35,0,0,0-.89-.83,15.14,15.14,0,0,1-1.62,0,15.91,15.91,0,0,1-3.51-.52c-3.23-.83-3.53-1.43-6.25-2.1a23.4,23.4,0,0,0-5.36-.64,11.57,11.57,0,0,0-2.85.23,4.54,4.54,0,0,0-2.64,1.19,3.36,3.36,0,0,0-.6.95l-.07,2.42h0v.16l0,1.61.79-.05c.84-.05,1.4-.08,1.91-.08.3,0,.58,0,.86,0a10.2,10.2,0,0,1,2.08.34,9.1,9.1,0,0,1,1.79.7H58.7l.08,0,.09,0,.07,0,.08,0,.09,0,.47-.2.12,0,.12-.05.13,0,0,0,0,0,.22-.07.23-.06.15,0,.16,0,.17,0,.12,0,.15,0,.1,0,.16,0h0c.35,0,.7-.09,1-.11h0c.27,0,.53,0,.81,0s.47,0,.74,0h0c.4,0,.91,0,1.51.08h0c.25,0,.5,0,.75.08h0a3.74,3.74,0,0,1,.9.25h0a16.76,16.76,0,0,0,2,.4,22.52,22.52,0,0,0,2.88.2C72.22,19.25,72.15,18.56,72.06,17.9Zm-22.23.75a12.26,12.26,0,0,0-1.82.19,2.52,2.52,0,0,1,.93-1.46c.69-.49,1.47-.37,3-.15a4.31,4.31,0,0,1,2.19.67,3.24,3.24,0,0,1,1.06,1.7A13.34,13.34,0,0,0,49.83,18.65Zm13.91,0a14.11,14.11,0,0,0-4.81.92,3.38,3.38,0,0,1,.94-1.74c.9-.84,2-.84,3.76-.84s2.9,0,3.85.89a3.38,3.38,0,0,1,.9,1.47A14.27,14.27,0,0,0,63.74,18.68Z"/><path class="cls-16" d="M72.31,25.93,71,31.61l-.18-.79a11.92,11.92,0,0,1-.6,1.68c-.21.46-.43.88-.64,1.24a2.14,2.14,0,0,0-.06-.67,1.76,1.76,0,0,0-.16-.43,11.33,11.33,0,0,1-.78,1.64c-.21.37-.43.7-.64,1a4.13,4.13,0,0,0,0-.57,3.23,3.23,0,0,0-.15-.58,8.6,8.6,0,0,1-.46.81,10.92,10.92,0,0,1-.91,1.23c0-.38-.08-.87-.16-1.43v-.1a.28.28,0,0,0,0-.09v-.07s0-.1,0-.15,0,0,0-.07,0-.06,0-.09,0-.05,0-.07,0-.05,0-.07l0-.16s0,0,0-.08a1.16,1.16,0,0,0,0-.18s0,0,0-.08L66,33.32h0a.76.76,0,0,1,0-.11.56.56,0,0,1,0-.12,1,1,0,0,0-.07-.15v0s0,0,0,0l0-.08a.2.2,0,0,1,0-.08l0-.07s0,0,0-.08l-.07-.11h0l-.06-.09-.08-.12a.44.44,0,0,0-.08-.11L65.29,32l-.07-.08-.06-.08h0l-.06-.08L65,31.7a.08.08,0,0,0,0,0l0,0-.06-.07-.07-.06-.06-.06-.06-.05-.06-.05,0,0s0,0,0-.05l-.08-.06-.14-.1,0,0-.06,0-.31-.19a6.15,6.15,0,0,0-2.45-.78A8.46,8.46,0,0,0,60.08,30l.09-.05.07-.05,0,0h0l.06-.05.08-.06h0s0,0,0,0h0l.08-.07.06-.08.06-.07h0a.21.21,0,0,0,0-.06l0,0,0,0s0-.05,0-.08l0,0,0-.08,0-.09a1.17,1.17,0,0,0,.06-.2v-.07a1.28,1.28,0,0,0,0-.19,1.94,1.94,0,0,0,0-.24,1.44,1.44,0,0,0-1-1.15,1.46,1.46,0,0,0-1,.14l.11,0h.09l0,0,.05,0,.18.07.06,0,0,0,0,0h0l0,0,.11.08,0,0,0,0,.05,0h0l0,0a.63.63,0,0,1,.1.12,1,1,0,0,1,.27.6c0,.56-.67,1-1.11,1.14s-.49,0-1,.12l-.1,0h0l-.06,0a.32.32,0,0,0-.09,0l-.15.06h0l-.08,0-.06,0-.07,0-.11.08-.12.08-.1.08-.09.08h0a1.22,1.22,0,0,1-.8.36,1.89,1.89,0,0,1-1-.26l-.18-.11h0L55,30.19l0,0h0l0,0h0l0,0,0-.05h0l0-.07h0l0,0,0,0,0,0a1.63,1.63,0,0,0-.18-.14h0l-.06,0c-.47-.3-.72-.22-1-.54a1,1,0,0,1-.28-.57c0-.45.39-.71.77-1.16a7.42,7.42,0,0,0,.94-2.28,17.34,17.34,0,0,0,.5-1.84h0c.1-.37.17-.71.24-1a1.4,1.4,0,0,1,2.7,0,5.85,5.85,0,0,0,1.79,3.54,5.6,5.6,0,0,0,3.78,1.1h.27a4.41,4.41,0,0,0,2.72-.75l0,0h0a1.59,1.59,0,0,0,.51-.45h0a4,4,0,0,0,.67-1A6.4,6.4,0,0,0,68.46,22a1.25,1.25,0,0,1,.44-.79,1,1,0,0,1,.57-.17L72.34,21a.38.38,0,0,1,0,.1l0,.64A41,41,0,0,1,72.31,25.93Z"/><path class="cls-16" d="M64,35.15a4.66,4.66,0,0,1-.36,1.49,5,5,0,0,1-.46.79c-.06-.2-.13-.4-.2-.6a5.6,5.6,0,0,1-.57,1.06,6.46,6.46,0,0,1-1.21,1.39,2.54,2.54,0,0,0,0-.41,3.37,3.37,0,0,0-.06-.6,7,7,0,0,1-.71.79,7.13,7.13,0,0,1-1.16.93c0-.29,0-2.19-.81-2.8A5.37,5.37,0,0,0,60.6,36a9.06,9.06,0,0,1-3.6.63,8.76,8.76,0,0,1-3.36-.81A5.2,5.2,0,0,0,55.44,37c-1.1.44-1.72,2.07-1.82,2.35a3.76,3.76,0,0,1-.18-.59,4.82,4.82,0,0,1-.1-1,4.31,4.31,0,0,0-.31.54,3.69,3.69,0,0,0-.22.55c-.12-.17-.24-.35-.36-.55a7,7,0,0,1-.9-3.52l.54-1.41a9.76,9.76,0,0,0,2.67,1.26,11.33,11.33,0,0,0,8.55-1.26Z"/><path class="cls-16" d="M67.66,20.41l0,0c-.38-.56-1.31-.65-2.33-.71a19.33,19.33,0,0,0-2.69,0,10.1,10.1,0,0,0-1.95.31,8.37,8.37,0,0,0-1.24.45,1,1,0,0,0-.57,1c0,.13,0,.26,0,.4s0,.06,0,.09A.68.68,0,0,0,59,22s0,0,0,0,0,.07,0,.1a6.64,6.64,0,0,0,.86,2.38h0a4,4,0,0,0,.71.8,3.91,3.91,0,0,0,2.09.87h0a9.24,9.24,0,0,0,1.25.07,4,4,0,0,0,2.6-.62,3.19,3.19,0,0,0,1-1.22l0-.09a.36.36,0,0,1,0-.09.19.19,0,0,1,0-.07l0-.11a.11.11,0,0,0,0,0l0-.14a.5.5,0,0,0,0-.12.13.13,0,0,0,0-.06s0-.05,0-.07,0,0,0-.07V23.5a.22.22,0,0,0,0-.08.38.38,0,0,1,0-.1h0v-.1a1.93,1.93,0,0,0,0-.24s0-.09,0-.13V22A4,4,0,0,0,67.66,20.41Zm-3.49-.53A4,4,0,0,1,66.29,21a5.32,5.32,0,0,0-2.16-1,5.16,5.16,0,0,0-2.06,0A3.85,3.85,0,0,1,64.17,19.88Zm2.16,2.53a1.78,1.78,0,0,0-.53,0,9.59,9.59,0,0,0-1.72.22,5,5,0,0,1-1.13.2c-.42,0-.57-.07-1.07-.1a5.81,5.81,0,0,0-1.21,0A1.67,1.67,0,0,1,61,21.9a.1.1,0,0,1,0,0l-.84.57a3.51,3.51,0,0,1,1.73-1.84,3.11,3.11,0,0,1,1.29-.23h.59l.08,0h0l.09,0,.13,0,.26.09h0l.12,0,.12.05a1.76,1.76,0,0,1,.2.09l.09,0h0l.09.05.16.09.07,0,.12.08.12.08.11.08a2.88,2.88,0,0,1,.34.27l.22.2.11.11.13.15,0,0,.13.14,0,.06.08.09a.86.86,0,0,0,.07.1l0,.06.08.1A2.13,2.13,0,0,0,66.33,22.41Z"/><path class="cls-16" d="M54.15,20.22c-.26-.1-.54-.19-.85-.28l-.66-.15-2.27-.19c-.45,0-1,0-1.7.07l-.85.07-.08,2.61-.1,3.43a4.21,4.21,0,0,0,2.42.5,5,5,0,0,0,3.36-.94,4,4,0,0,0,1-1.29c.05-.12.11-.24.15-.35l0-.12,0-.1,0-.09.06-.19,0-.09,0-.09a.57.57,0,0,1,0-.14l0-.14.06-.26h0l0-.11c0-.07,0-.14,0-.21s0-.24.07-.35A1.46,1.46,0,0,0,54.15,20.22Zm-3.16,0a3.67,3.67,0,0,1,1.89.16,4.68,4.68,0,0,0-1.85,0,4.61,4.61,0,0,0-1.94.89A3.58,3.58,0,0,1,51,20.18Zm-1.46,2.28a1.75,1.75,0,0,0-.47,0,2,2,0,0,0-.44.12l.11-.15v0l.1-.13,0,0,.11-.12v0h0v0l.1-.11.08-.08,0,0,0,0,.16-.15.06,0h0l.11-.09.09-.07.09-.06a1.09,1.09,0,0,1,.17-.13L50,21.2l.09-.06.09-.05.05,0,0,0,.09,0,.08,0,.07,0,.1,0,.21-.08.1,0h.17l.11,0,.09,0,.2,0,.11,0H52a2.71,2.71,0,0,1,1.06.21,3.12,3.12,0,0,1,1.55,1.65L53.84,22l0,0a1.53,1.53,0,0,1,.27.79l-.19,0h-.9c-.45,0-.58.09-1,.09a4.55,4.55,0,0,1-1-.18A8.67,8.67,0,0,0,49.53,22.46Z"/><path class="cls-16" d="M78.23,24.64a5.48,5.48,0,0,1-1.08,2.23,5.82,5.82,0,0,0-1,1.25c-.21.37-.15.4-.36.82a3,3,0,0,1-1.23,1.5,2,2,0,0,1-1.48,0c.07-1.22.15-2.46.23-3.7,0-.58.08-1.15.13-1.73a12.46,12.46,0,0,1,1.57-3,2.77,2.77,0,0,1,1.45-1.23,1.69,1.69,0,0,1,1.28.1,2.22,2.22,0,0,1,.8,1.8A4.73,4.73,0,0,1,78.23,24.64Z"/><path class="cls-8" d="M74.2,28.08A3.47,3.47,0,0,0,75.85,27a2,2,0,0,0,.65-1.41,1.88,1.88,0,0,0-.71-1.29c.13-.24,1-1.79,1.45-1.64s.28,1,.24,1.47c.53-.88.67-1.66.34-2a.7.7,0,0,0-.49-.2c-1.23-.1-2.57,2.62-2.75,3,.15,0,.69,0,.92.32s0,.92-.24,1.42A4.54,4.54,0,0,1,74.2,28.08Z"/><polygon class="cls-3" points="62.47 86.74 62.47 86.74 62.47 86.74 62.47 86.74"/><path class="cls-8" d="M54.86,22.74l.06-.26Zm0,0,.06-.26Z"/><path class="cls-8" d="M75.34,20c-.91,0-1.69,0-2.31,0h-.75a22.52,22.52,0,0,1-2.88-.2,16.76,16.76,0,0,1-2-.4h0l-.9-.25h0L65.76,19h0l-.39,0L64.18,19h0c-.53,0-1,0-1.55,0h0l-1,.11h0l-.16,0-.1,0-.15,0-.12,0-.17,0-.16,0-.15,0-.23.06-.22.07,0,0,0,0-.13,0-.12.05-.12,0-.47.2-.09,0-.08,0-.07,0-.09,0-.08,0H55.27a9.1,9.1,0,0,0-1.79-.7A10.2,10.2,0,0,0,51.4,19c-.28,0-.56,0-.86,0-.51,0-1.07,0-1.91.08l-.79.05a4.85,4.85,0,0,0-1,.19l-.13,0h0a5.34,5.34,0,0,0-.9,0c-.47,0-.72.07-.87.26a1,1,0,0,0-.17.56.77.77,0,0,0,0,.41c.1.18.28.17.43.29a.76.76,0,0,1,.23.61h0V22a6.43,6.43,0,0,0,.33,2.74,4.05,4.05,0,0,0,1.22,1.46,4,4,0,0,0,.55.33,4.75,4.75,0,0,0,2.18.42h.27a5.59,5.59,0,0,0,3.77-1.1l.27-.24a5.25,5.25,0,0,0,1.29-2.3h0c.1-.37.17-.71.24-1a1.4,1.4,0,0,1,2.7,0,5.85,5.85,0,0,0,1.79,3.54,5.6,5.6,0,0,0,3.78,1.1h.27a4.41,4.41,0,0,0,2.72-.75l0,0h0a3.64,3.64,0,0,0,.51-.45h0a4,4,0,0,0,.67-1A6.4,6.4,0,0,0,68.46,22a1.25,1.25,0,0,1,.44-.79,1,1,0,0,1,.57-.17L72.34,21h3.12l1-.95ZM55.06,21.81c0,.11,0,.23-.07.35s0,.14,0,.21l0,.11h0l-.06.26,0,.14a.57.57,0,0,0,0,.14l0,.09,0,.09-.06.19,0,.09,0,.1,0,.12c0,.11-.1.23-.15.35a4,4,0,0,1-1,1.29,5,5,0,0,1-3.36.94,4.21,4.21,0,0,1-2.42-.5l-.18-.12a3.33,3.33,0,0,1-.73-.74,2.78,2.78,0,0,1-.29-.48,3.34,3.34,0,0,1-.24-1.34c0-.31,0-.67,0-1.11a8.66,8.66,0,0,1,0-.95l.31.1a1.91,1.91,0,0,1,.32.17l0-.9-.16-.05a1.62,1.62,0,0,0-.27-.08,1.07,1.07,0,0,1,.45-.31h0l.06,0,0,0h0l.06,0,0,0,.1,0h.07l.06,0h0l.08,0,.11,0h.07l.21,0,.85-.07c.72,0,1.25-.06,1.7-.07a8,8,0,0,1,1,0,10.79,10.79,0,0,1,1.29.16l.66.15c.31.09.59.18.85.28A1.46,1.46,0,0,1,55.06,21.81ZM67.8,22v.85s0,.09,0,.13a1.93,1.93,0,0,1,0,.24v.1h0a.38.38,0,0,0,0,.1.22.22,0,0,1,0,.08v.07s0,.05,0,.07,0,.05,0,.07a.13.13,0,0,1,0,.06.5.5,0,0,1,0,.12l0,.14a.11.11,0,0,1,0,0l0,.11a.19.19,0,0,0,0,.07.36.36,0,0,0,0,.09l0,.09a3.19,3.19,0,0,1-1,1.22,4,4,0,0,1-2.6.62,9.24,9.24,0,0,1-1.25-.07h0a3.91,3.91,0,0,1-2.09-.87,4,4,0,0,1-.71-.8h0A6.64,6.64,0,0,1,59,22.16s0-.07,0-.1,0,0,0,0a.68.68,0,0,1,0-.14s0-.06,0-.09,0-.27,0-.4a1,1,0,0,1,.57-1,8.37,8.37,0,0,1,1.24-.45,10.1,10.1,0,0,1,1.95-.31,19.33,19.33,0,0,1,2.69,0c1,.06,2,.15,2.33.71l0,0A4,4,0,0,1,67.8,22Z"/><path class="cls-8" d="M63.93,21.15a3.42,3.42,0,0,0-1.54,0,3.39,3.39,0,0,0-.9.3,1.2,1.2,0,0,0,0,.35c0,.05,0,.1.05.15a1.3,1.3,0,0,0,.33.47,1.37,1.37,0,0,0,1.08.29,1.17,1.17,0,0,0,.91-.4A.22.22,0,0,0,64,22.2a1.08,1.08,0,0,0,0-1.05Zm-1.58.15a.2.2,0,0,1,.2.2.21.21,0,0,1-.2.21.22.22,0,0,1-.21-.21A.21.21,0,0,1,62.35,21.3Z"/><path class="cls-19" d="M65.8,22.42a9.59,9.59,0,0,0-1.72.22,5,5,0,0,1-1.13.2c-.42,0-.57-.07-1.07-.1a5.81,5.81,0,0,0-1.21,0A1.67,1.67,0,0,1,61,21.9a.1.1,0,0,1,0,0,.48.48,0,0,1,.09-.11,1.71,1.71,0,0,1,.4-.32,1.2,1.2,0,0,0,0,.35c0,.05,0,.1.05.15a1.3,1.3,0,0,0,.33.47,1.37,1.37,0,0,0,1.08.29,1.17,1.17,0,0,0,.91-.4A.22.22,0,0,0,64,22.2a1.08,1.08,0,0,0,0-1.05l.19.05a3.51,3.51,0,0,1,1.37.86A3.62,3.62,0,0,1,65.8,22.42Z"/><path class="cls-8" d="M66.82,22.54a2.13,2.13,0,0,0-.49-.13,1.78,1.78,0,0,0-.53,0,3.62,3.62,0,0,0-.31-.36,3.51,3.51,0,0,0-1.37-.86l-.19-.05a3.42,3.42,0,0,0-1.54,0,3.39,3.39,0,0,0-.9.3,1.71,1.71,0,0,0-.4.32.48.48,0,0,0-.09.11l-.84.57a3.51,3.51,0,0,1,1.73-1.84,3.11,3.11,0,0,1,1.29-.23h.59l.08,0h0l.09,0,.13,0,.26.09h0l.12,0,.12.05a1.76,1.76,0,0,1,.2.09l.09,0h0l.09.05.16.09.07,0,.12.08.12.08.11.08a2.88,2.88,0,0,1,.34.27l.22.2.11.11.13.15,0,0,.13.14,0,.06.08.09a.86.86,0,0,0,.07.1l0,.06Z"/><path class="cls-8" d="M52.59,21.3a3.1,3.1,0,0,0-1.39,0,1,1,0,0,0,0,.95l0,0,0,0a1,1,0,0,0,.82.36,1.3,1.3,0,0,0,.74-.12h0a.78.78,0,0,0,.22-.15,1.06,1.06,0,0,0,.3-.42,1.39,1.39,0,0,0,.09-.44A2.75,2.75,0,0,0,52.59,21.3Zm0,.52a.18.18,0,1,1,0-.36.18.18,0,0,1,0,.36Z"/><path class="cls-8" d="M47.82,19.74l-.08,2.61-.1,3.43-.18-.12a3.33,3.33,0,0,1-.73-.74l.1-3.61,0-.9V20l.06,0,0,0h0l.06,0,0,0,.1,0h.07l.06,0h0l.08,0,.11,0h.07Z"/><path class="cls-9" d="M36.16,78.53h0a12.86,12.86,0,0,0-.53,3c-.49-.13-1.21-.32-2.06-.57a26.84,26.84,0,0,1-2.75-.9,7.91,7.91,0,0,1-3.62-2.44,5.78,5.78,0,0,1-.83-1.51,5.9,5.9,0,0,1-.19-3,12.41,12.41,0,0,1,.44-1.85h0a4.26,4.26,0,0,0,.07,2.77c.29.67.88,1.5,3.47,2.66A24.71,24.71,0,0,0,36.16,78.53Z"/><path class="cls-9" d="M42,84.25c-1-.2-1.92-.4-2.66-.58-1.72-.43-2.11-.62-2.39-1-.1-.13-.43-.61-.23-2.24a9,9,0,0,1,.16-.93,19.71,19.71,0,0,0,2.49,1.29,20.51,20.51,0,0,0,2.64.92A10.61,10.61,0,0,0,42,84.25Z"/><path class="cls-17" d="M55.48,79.69c-.07.7-.14,1.61-.15,2.67a67.54,67.54,0,0,1-6-3.56,69,69,0,0,1-9.57-7.66A4.73,4.73,0,0,1,41,70a4.89,4.89,0,0,1,2.44-.7,2.27,2.27,0,0,0-1.14,1.43C41.77,73.59,49.86,77.38,55.48,79.69Z"/><path class="cls-9" d="M62.83,85.55c-1.39-.2-2.55-.43-3.42-.63-1.61-.36-2-.54-2.34-.9a3.91,3.91,0,0,1-.71-2.61c0-.18,0-.35,0-.51l6.35,2.28C62.71,83.89,62.74,84.69,62.83,85.55Z"/><path class="cls-9" d="M91.87,59.11c-.23,2.39-.34,3.58-.63,5.15a58.92,58.92,0,0,1-3.67,12.61,22.44,22.44,0,0,1-3.74,6,13.33,13.33,0,0,1-1.69,1.53A15,15,0,0,1,79,86.09c-2,.8-7.88.82-15.16-1.46a14.56,14.56,0,0,1,.73-7.87v0a5,5,0,0,0,.52,3.56c.74,1.19,1.91,1.63,3.52,2.24a18.67,18.67,0,0,0,4.45.93c3.08.42,4.07.21,4.48.11a6.86,6.86,0,0,0,2.53-1.15,7.36,7.36,0,0,0,1.68-1.86,24.43,24.43,0,0,0,2.33-4.26c1-2.34,1.65-4.23,1.95-5.16.25-.76.49-1.54,1.82-6.38,1-3.59,1.29-4.81,1.65-6.49a24.3,24.3,0,0,0,.64-4.84,21.9,21.9,0,0,0-.11-2.68,4.87,4.87,0,0,1,1.46,2.1C92.14,54.26,92.2,55.59,91.87,59.11Z"/><path class="cls-9" d="M89.1,49.24c-1.09-.7-2-1.2-2.63-1.52a50.84,50.84,0,0,0-6.63-2.67c-1.15-.41-2.08-.72-2.67-.92h0c.17-.63.34-1.23.49-1.8,1.8.86,3.29,1.63,4.42,2.22a35.23,35.23,0,0,1,4.77,2.84A24.86,24.86,0,0,1,89.1,49.24Z"/><path class="cls-9" d="M74,41.36a6,6,0,0,1-1.14,2.54l-.14.18a7.82,7.82,0,0,0-.55-2.75,2.77,2.77,0,0,0-.27-.4c.13-.17.25-.33.37-.51a9.28,9.28,0,0,0,1.06-2.15A4,4,0,0,1,74,40,3.88,3.88,0,0,1,74,41.36Z"/><path class="cls-9" d="M56.8,50.06a3.31,3.31,0,0,0-1.58.65h0a4.37,4.37,0,0,1-3.37-1.57,3.26,3.26,0,0,1-.5-1.06h0c.33-.76.72-1.62,1.17-2.56a5.35,5.35,0,0,0,.94,2.27,6.18,6.18,0,0,0,2.43,1.89A7,7,0,0,0,56.8,50.06Z"/><path class="cls-20" d="M49.63,44.36c-.24.38-.59,1-1,1.68-.21.36-.41.7-.6,1l-5.47-.15h0a13.87,13.87,0,0,1,1.77-.83c1-.36,1.52-.41,3-.89C48.32,44.89,49.12,44.57,49.63,44.36Z"/><path class="cls-9" d="M42.56,60.18h0c-.39,1.4-.65,2.45-.73,2.77,0-.35-.09-.71-.13-1.07-.2-1.86-.31-3.69-.34-5.47Z"/><path class="cls-9" d="M39.21,70.24c0,.13-.09.25-.13.38A8.44,8.44,0,0,0,37.53,70c0-.35.1-.7.16-1.07A7.57,7.57,0,0,1,39.21,70.24Z"/><path class="cls-9" d="M40.71,63c-.2-.53-.44-1.08-.7-1.66.15-.34.3-.67.45-1h0C40.51,61.24,40.6,62.12,40.71,63Z"/><path class="cls-9" d="M40.78,66.64a11.08,11.08,0,0,0-1.59-1.8c-.13-.13-.27-.25-.4-.36.23-.72.47-1.39.73-2Z"/><path class="cls-9" d="M40.92,69l-.6.45a7.2,7.2,0,0,0-2.34-2c.1-.46.22-.93.35-1.42.07-.27.15-.53.22-.8.19.25.38.5.57.77A23.44,23.44,0,0,1,40.92,69Z"/><path class="cls-17" d="M66,33.32h0a.76.76,0,0,1,0-.11.56.56,0,0,1,0-.12,1,1,0,0,0-.07-.15v0s0,0,0,0l0-.08a.2.2,0,0,1,0-.08l0-.07s0,0,0-.08l-.07-.11h0l-.06-.09-.08-.12a.44.44,0,0,0-.08-.11L65.29,32l-.07-.08-.06-.08h0l-.06-.08L65,31.7a.08.08,0,0,0,0,0l0,0-.06-.07-.07-.06-.06-.06-.06-.05-.06-.05,0,0s0,0,0-.05l-.08-.06-.14-.1h0a10.8,10.8,0,0,0-1.08-1A10,10,0,0,0,61,28.73a7.58,7.58,0,0,1,2.37.91,5.28,5.28,0,0,1,1.83,1.53A4.66,4.66,0,0,1,66,33.32Z"/><path class="cls-8" d="M66.21,34.74A5.54,5.54,0,0,0,65,32.27a5.69,5.69,0,0,0-1.14-1c-.33-.21-1.31-.78-4.05-1-.79-.05-.81,0-1.9,0a4.41,4.41,0,0,1-.46.32,3.87,3.87,0,0,1-.53.28,2.19,2.19,0,0,1-.89.2,1,1,0,0,1-.57-.21c-.2-.12-.47-.31-.84-.59a6.3,6.3,0,0,0-1.15.1,5.19,5.19,0,0,0-2.61,1,4.39,4.39,0,0,0-1.42,3,5,5,0,0,1,0-1.26l0-.13a.5.5,0,0,1,0-.12l0-.13s0-.05,0-.07h0s0,0,0-.05l0-.13h0v0l0-.1s0-.07,0-.11h0l0-.09s0,0,0,0l0,0h0l0-.06,0-.09h0a2.86,2.86,0,0,1,.34-.54,3.25,3.25,0,0,1,.92-.76l0,0h0l.07,0,.08,0,.08-.05.16-.07a.2.2,0,0,1,.08,0l.08,0,.07,0,.08,0,.1,0,.1,0,.17-.05h0l.08,0,.09,0,.06,0h0l.07,0,.12,0,.12,0h.31l.13,0h.26a1.89,1.89,0,0,1-.58-.45l-.11-.14,0-.05h0l0-.06,0,0s0,0,0,0a.75.75,0,0,1-.08-.18h0s0,0,0-.06v0a.06.06,0,0,1,0,0v0h0s0,0,0,0V28.7a1,1,0,0,1,0-.35V28.3s0,0,0,0h0l0-.05s0,0,0,0l0,0,.12-.21.07-.11,0-.05a.86.86,0,0,1,.07-.1,3.78,3.78,0,0,1,.5-.53,2.57,2.57,0,0,0,.64-1.52,5.25,5.25,0,0,0,1.29-2.3,17.34,17.34,0,0,1-.5,1.84A7.42,7.42,0,0,1,54,27.42c-.38.45-.8.71-.77,1.16a1,1,0,0,0,.28.57c.3.32.55.24,1,.54l.06,0h0a1.63,1.63,0,0,1,.18.14l0,0,0,0,0,0h0l0,.07h0l0,.05,0,0h0l0,0h0l0,0,.16.13h0l.18.11a1.89,1.89,0,0,0,1,.26,1.22,1.22,0,0,0,.8-.36h0l.09-.08.1-.08.12-.08.11-.08.07,0,.06,0,.08,0h0l.15-.06a.32.32,0,0,1,.09,0l.06,0h0l.1,0c.49-.11.54,0,1-.12s1.11-.58,1.11-1.14a1,1,0,0,0-.27-.6.63.63,0,0,0-.1-.12l0,0h0l-.05,0,0,0,0,0-.11-.08,0,0h0l0,0,0,0-.06,0-.18-.07-.05,0,0,0h-.09l-.11,0a1.46,1.46,0,0,1,1-.14,1.44,1.44,0,0,1,1,1.15,1.94,1.94,0,0,1,0,.24,1.28,1.28,0,0,1,0,.19v.07a1.17,1.17,0,0,1-.06.2l0,.09,0,.08,0,0s0,.05,0,.08l0,0,0,0a.21.21,0,0,1,0,.06h0l-.06.07-.06.08-.08.07h0s0,0,0,0h0l-.08.06-.06.05h0l0,0-.07.05-.09.05a8.46,8.46,0,0,1,1.38.09,6.15,6.15,0,0,1,2.45.78l.31.19.06,0,0,0,.14.1.08.06s0,0,0,.05l0,0,.06.05.06.05.06.06.07.06.06.07,0,0a.08.08,0,0,1,0,0l.07.07.06.08h0l.06.08.07.08.06.09a.44.44,0,0,1,.08.11l.08.12.06.09h0l.07.11s0,0,0,.08l0,.07a.2.2,0,0,0,0,.08l0,.08s0,0,0,0v0a1,1,0,0,1,.07.15.56.56,0,0,0,0,.12.76.76,0,0,0,0,.11h0l.06.21s0,0,0,.08a1.16,1.16,0,0,1,0,.18s0,.05,0,.08l0,.16s0,0,0,.07,0,0,0,.07,0,.06,0,.09,0,.05,0,.07,0,.1,0,.15v.07a.28.28,0,0,1,0,.09Z"/><path class="cls-17" d="M60.29,28.49c0,.56-.67,1-1.11,1.14s-.49,0-1,.12l-.1,0h0l-.06,0a.32.32,0,0,0-.09,0l-.15.06h0l-.08,0-.06,0-.07,0-.11.08-.12.08-.1.08-.09.08h0a1.22,1.22,0,0,1-.8.36,1.89,1.89,0,0,1-1-.26l-.18-.11h0L55,30.19l0,0h0l0,0h0l0,0,0-.05h0l0-.07h0l0,0,0,0,0,0a1.63,1.63,0,0,0-.18-.14h0l-.06,0c-.47-.3-.72-.22-1-.54a1,1,0,0,1-.28-.57c0-.45.39-.71.77-1.16a1.21,1.21,0,0,1,0,.5c-.05.26-.18.38-.13.54s.2.22.26.25c.77.39,1.15,1.26,2,1.36.6.08.6-.38,1.83-.77,1-.33,1.51-.18,1.7-.53s.13-.62-.48-1.46h.09l0,0,.05,0,.18.07.06,0,0,0,0,0h0l0,0,.11.08,0,0,0,0,.05,0h0l0,0a.63.63,0,0,1,.1.12A1,1,0,0,1,60.29,28.49Z"/><path class="cls-17" d="M52.61,29h0a18.1,18.1,0,0,0-1.48,1.61h0l0,0a3.25,3.25,0,0,0-.92.76,2.86,2.86,0,0,0-.34.54,6.23,6.23,0,0,1,2.77-3.56,1,1,0,0,0,0,.35v.07s0,0,0,0h0v0a.06.06,0,0,0,0,0v0S52.6,29,52.61,29Z"/><path class="cls-19" d="M54.14,22.78l-.19,0h-.9c-.45,0-.58.09-1,.09a4.55,4.55,0,0,1-1-.18,8.67,8.67,0,0,0-1.54-.2,3.13,3.13,0,0,1,.34-.38A3,3,0,0,1,51,21.37l.16-.05a1,1,0,0,0,0,.95l0,0,0,0a1,1,0,0,0,.82.36,1.3,1.3,0,0,0,.74-.12h0a.78.78,0,0,0,.22-.15,1.06,1.06,0,0,0,.3-.42,1.39,1.39,0,0,0,.09-.44,1.42,1.42,0,0,1,.44.38l0,0A1.53,1.53,0,0,1,54.14,22.78Z"/><path class="cls-19" d="M52.63,21.82a.18.18,0,1,1,0-.36.18.18,0,0,1,0,.36Z"/><path class="cls-8" d="M54.59,22.46,53.84,22a1.42,1.42,0,0,0-.44-.38,2.75,2.75,0,0,0-.81-.27,3.1,3.1,0,0,0-1.39,0l-.16.05a3,3,0,0,0-1.17.71,3.13,3.13,0,0,0-.34.38,1.75,1.75,0,0,0-.47,0,2,2,0,0,0-.44.12l.11-.15v0l.1-.13,0,0,.11-.12v0h0v0l.1-.11.08-.08,0,0,0,0,.16-.15.06,0h0l.11-.09.09-.07.09-.06a1.09,1.09,0,0,1,.17-.13L50,21.2l.09-.06.09-.05.05,0,0,0,.09,0,.08,0,.07,0,.1,0,.21-.08.1,0h.17l.11,0,.09,0,.2,0,.11,0H52a2.71,2.71,0,0,1,1.06.21A3.12,3.12,0,0,1,54.59,22.46Z"/><path class="cls-8" d="M52.88,20.34a4.68,4.68,0,0,0-1.85,0,4.61,4.61,0,0,0-1.94.89A3.58,3.58,0,0,1,51,20.18,3.67,3.67,0,0,1,52.88,20.34Z"/><path class="cls-17" d="M54.15,20.22c-.26-.1-.54-.19-.85-.28l-.66-.15a10.79,10.79,0,0,0-1.29-.16,8,8,0,0,0-1,0c-.45,0-1,0-1.7.07l-.85.07-.08,2.61a2.29,2.29,0,0,1,.8-.34,2,2,0,0,1,.57-.05l.08-.08,0,0,0,0,.16-.15.06,0h0l.11-.09.09-.07.09-.06a1.09,1.09,0,0,1,.17-.13L50,21.2l.09-.06.09-.05.05,0,0,0,.09,0,.08,0,.07,0,.1,0,.21-.08.1,0h.17l.11,0,.09,0,.2,0,.11,0H52a2.71,2.71,0,0,1,1.06.21,3.12,3.12,0,0,1,1.55,1.65L53.84,22l0,0a1.53,1.53,0,0,1,.27.79l-.19,0h-.19a3.23,3.23,0,0,1-.52.54,3.68,3.68,0,0,1-1.73.8A4.26,4.26,0,0,0,53,23.82a2.79,2.79,0,0,1,1-.31,1.93,1.93,0,0,1,.62.07l0-.1,0-.09.06-.19,0-.09,0-.09a.57.57,0,0,1,0-.14l0-.14.06-.26h0l0-.11c0-.07,0-.14,0-.21s0-.24.07-.35A1.46,1.46,0,0,0,54.15,20.22ZM51,20.34a4.61,4.61,0,0,0-1.94.89A3.58,3.58,0,0,1,51,20.18a3.67,3.67,0,0,1,1.89.16A4.68,4.68,0,0,0,51,20.34Z"/><path class="cls-17" d="M60.67,23.36a4.66,4.66,0,0,1,1.22.4,3.52,3.52,0,0,0,.62.3,2.22,2.22,0,0,0,1.07.05,2.54,2.54,0,0,1-1-.15,3.37,3.37,0,0,1-.54-.28A2.93,2.93,0,0,0,60.67,23.36Z"/><path class="cls-20" d="M72.75,21l-.4.1a10,10,0,0,1-1.35.24,6.19,6.19,0,0,0-1.73.28,4.1,4.1,0,0,0-.81.39,1.25,1.25,0,0,1,.44-.79,1,1,0,0,1,.57-.17L72.34,21Z"/><path class="cls-19" d="M62.55,21.5a.21.21,0,0,1-.2.21.22.22,0,0,1-.21-.21.21.21,0,0,1,.21-.2A.2.2,0,0,1,62.55,21.5Z"/><path class="cls-8" d="M66.29,21a5.32,5.32,0,0,0-2.16-1,5.16,5.16,0,0,0-2.06,0,3.85,3.85,0,0,1,2.1-.18A4,4,0,0,1,66.29,21Z"/><path class="cls-17" d="M67.66,20.41l0,0c-.38-.56-1.31-.65-2.33-.71a19.33,19.33,0,0,0-2.69,0,10.1,10.1,0,0,0-1.95.31,8.37,8.37,0,0,0-1.24.45,1,1,0,0,0-.57,1c0,.13,0,.26,0,.4a1.15,1.15,0,0,1,.68.09,1.22,1.22,0,0,1,.57.55,3.51,3.51,0,0,1,1.73-1.84,3.11,3.11,0,0,1,1.29-.23h.59l.08,0h0l.09,0,.13,0,.26.09h0l.12,0,.12.05a1.76,1.76,0,0,1,.2.09l.09,0h0l.09.05.16.09.07,0,.12.08.12.08.11.08a2.88,2.88,0,0,1,.34.27l.22.2.11.11.13.15,0,0,.13.14a2.47,2.47,0,0,1,.95.09,2.06,2.06,0,0,1,.33.13V22A4,4,0,0,0,67.66,20.41Zm-3.53-.35a5.16,5.16,0,0,0-2.06,0,3.85,3.85,0,0,1,2.1-.18A4,4,0,0,1,66.29,21,5.32,5.32,0,0,0,64.13,20.06Z"/><path class="cls-17" d="M72.06,17.9a4.21,4.21,0,0,0-1.16-.76,5.43,5.43,0,0,0-2.4-.37c-1.21,0-1.66-.31-3.59-.85a54,54,0,0,0-7.11-1.43,23.92,23.92,0,0,0-7.67.31,2.89,2.89,0,0,0-1.74,1,2.61,2.61,0,0,0-.5,1.47L48,14.87a3.36,3.36,0,0,1,.6-.95,4.54,4.54,0,0,1,2.64-1.19,11.57,11.57,0,0,1,2.85-.23,23.4,23.4,0,0,1,5.36.64c2.72.67,3,1.27,6.25,2.1a15.91,15.91,0,0,0,3.51.52,15.14,15.14,0,0,0,1.62,0,2.35,2.35,0,0,1,.89.83A2.22,2.22,0,0,1,72,17.62C72,17.72,72.05,17.81,72.06,17.9Z"/><path class="cls-21" d="M77.84,13.58a7.83,7.83,0,0,1-1.78,4.74,11.84,11.84,0,0,0-3-2.59,21.23,21.23,0,0,0-3.16-1.4C68,13.57,67,13.19,65.93,12.81a79.74,79.74,0,0,0-7.62-2.54,19.07,19.07,0,0,0-9.27.05,17.12,17.12,0,0,0-3.72,1.55,2.46,2.46,0,0,1-.21-1.17,20.9,20.9,0,0,1,3.64-1.34,23.33,23.33,0,0,1,12.12.31c2,.65,5.72,2.21,8.65,2.28.59,0,1.52,0,1.91-.61s0-1.44-.14-1.92A5.32,5.32,0,0,0,69,6.89C71.62,8,72.92,10,72.5,11.43a2.47,2.47,0,0,1-1.35,1.44,6.38,6.38,0,0,0,2.77.34,3.33,3.33,0,0,0,2.51-1,2.85,2.85,0,0,0,.34-2.36h0A7,7,0,0,1,77.84,13.58Z"/><path class="cls-6" d="M67.87,69.94a12,12,0,0,1-.78,2.5l-.43,0H66.4l-.19,0H66.1l-.2,0-.11,0-.17,0h-.19l-.31,0L63.32,72l-.36,0-.28,0-.14,0h-.15c-.3,0-.64-.07-1-.1l-.15,0h-.16l-.33,0a6.6,6.6,0,0,0-.82,0h-.33l-.21,0h-.2l-.07,0a2,2,0,0,0-.69.38c-1.13-.23-2.14-.47-3-.71h-.07l-.06,0-.75-.21-.08,0L54,71l-.19-.06-.31-.09h0l-.19-.06-.13,0-1.07-.34-.09,0-.09,0-.35-.11-.32-.11-.1,0-.77-.26-.07,0-.12,0-.33-.11-.12,0-.1,0-.11,0-1-.32-.09,0-.09,0-.4-.12-.15,0-.63-.18-.11,0-.06,0h0A5,5,0,0,1,46.53,67a5.13,5.13,0,0,1,.11-1.42c.44-1.87,2-2.16,2.38-3.82A3.6,3.6,0,0,0,49,59.85,3,3,0,0,1,50.07,61a3.2,3.2,0,0,1,.27,2.26c-.25,1.06-.83,1.09-1.08,2.3a2.17,2.17,0,0,0,.07,1.56c.22.4.51.47.89,1a3.43,3.43,0,0,1,.46.93l1-.36a2.52,2.52,0,0,1-.28-1.12,3.65,3.65,0,0,1,.51-1.69c.26-.55.35-.59.53-1a4.67,4.67,0,0,0,.34-1.39,2.54,2.54,0,0,1,.47,1c.17.77-.16,1.16,0,2.26.07.8.27.93.33,1,.28.15.67,0,1-.21a2.73,2.73,0,0,0,.84-.61,3,3,0,0,0,.71-1.72,6.51,6.51,0,0,0-.18-1.68,5.73,5.73,0,0,1,.18-2.54,4.1,4.1,0,0,1,2.6-2.14,3.25,3.25,0,0,0-1,2.62c.09.51.3.61.79,1.67a6.75,6.75,0,0,1,.8,2.28,7.57,7.57,0,0,1-.48,3.06,1.3,1.3,0,0,0-.09,1,1.17,1.17,0,0,0,.87.57,1.26,1.26,0,0,0,.81-.15c.88-.61-.32-2.83.73-4a1.93,1.93,0,0,1,.74-.5A3.8,3.8,0,0,0,62,66.89c.24.78.63,1,.89,1.78a3.76,3.76,0,0,1,.14,2,4,4,0,0,0,1.27-1.05,2.67,2.67,0,0,0,.56-1,3.4,3.4,0,0,0-.28-2.07c-.1-.28-.12-.26-.21-.5a4,4,0,0,1-.14-2.76,3.33,3.33,0,0,1,1.3-1.61,4.22,4.22,0,0,0-.11,1.71c.25,1.68,1.46,2.4,2.08,3.51A4.54,4.54,0,0,1,67.87,69.94Z"/><path class="cls-7" d="M50.39,69.83l-.07,0-.12,0-.33-.11-.12,0-.1,0-.11,0-1-.32-.09,0-.09,0a4.62,4.62,0,0,1-.41-2.27,4.55,4.55,0,0,1,.6-1.94,3.17,3.17,0,0,0,0,2.3,9.36,9.36,0,0,0,1,1.39C49.91,69.16,50.2,69.57,50.39,69.83Z"/><path class="cls-7" d="M53.5,70.84l-.19-.06-.13,0-1.07-.34-.09,0-.09,0-.35-.11A4.81,4.81,0,0,0,52.29,69a5,5,0,0,0,.31-1.38,1.89,1.89,0,0,1,.44.54,5,5,0,0,1,.28,1.73A6.09,6.09,0,0,0,53.5,70.84Z"/><path class="cls-7" d="M59.59,71.66l-.21,0h-.2l-.07,0a2,2,0,0,0-.69.38c-1.13-.23-2.14-.47-3-.71a2.89,2.89,0,0,1-.26-1c-.06-1.22.78-2,1.4-3a7.73,7.73,0,0,0,1.07-3.45,3.39,3.39,0,0,1,.44,1.62c0,1.55-1.08,2.32-.73,3.69a3.14,3.14,0,0,0,.4.86A4.23,4.23,0,0,0,59.59,71.66Z"/><path class="cls-7" d="M63,71.91l-.28,0-.14,0h-.15c-.3,0-.64-.07-1-.1l-.15,0h-.16l-.33,0a6.6,6.6,0,0,0-.82,0h-.18a9.39,9.39,0,0,1,.74-.84c.74-.78,1.11-1,1.27-1.44a1.71,1.71,0,0,0-.17-1.32,2.63,2.63,0,0,1,.59.89c.3.77,0,1.28.32,2.12A3.16,3.16,0,0,0,63,71.91Z"/><path class="cls-7" d="M65.4,71.55a2.55,2.55,0,0,0,0,.48c0,.08,0,.16,0,.22h0l-.31,0L63.32,72a11.37,11.37,0,0,0,1.27-1.3,6,6,0,0,0,1.2-1.83,4.18,4.18,0,0,0,.06-2.58,2.82,2.82,0,0,1,.7,1.72,4.65,4.65,0,0,1-.61,2.1A3.74,3.74,0,0,0,65.4,71.55Z"/><path class="cls-21" d="M73,67.33a21.94,21.94,0,0,0-4.9,5.19l-1-.08-.43,0H66.4l-.19,0H66.1l-.2,0-.11,0-.17,0h-.19l-.31,0h0L65.4,72a11,11,0,0,0,2-1.6c.17-.16.32-.33.47-.49a14.61,14.61,0,0,0,1.92-3c.84-1.57,1.85-3.54,2.95-5.88,0,.17,0,.34,0,.5A53.7,53.7,0,0,0,73,67.33Z"/></g></g></svg>